<svg width="41" height="41" viewBox="0 0 41 41" fill="none" xmlns="http://www.w3.org/2000/svg">
<path d="M28.7251 16.7752C28.7251 18.9016 27.8804 20.9409 26.3768 22.4444C24.8732 23.948 22.834 24.7927 20.7076 24.7927C18.5813 24.7927 16.542 23.948 15.0384 22.4444C13.5349 20.9409 12.6902 18.9016 12.6902 16.7752C12.6902 14.6489 13.5349 12.6096 15.0384 11.1061C16.542 9.6025 18.5813 8.75781 20.7076 8.75781C22.834 8.75781 24.8732 9.6025 26.3768 11.1061C27.8804 12.6096 28.7251 14.6489 28.7251 16.7752Z" fill="white"/>
<path fill-rule="evenodd" clip-rule="evenodd" d="M19.8899 40.8094C9.19963 40.3805 0.664062 31.5773 0.664062 20.7819C0.664062 9.7118 9.63758 0.738281 20.7077 0.738281C31.7777 0.738281 40.7512 9.7118 40.7512 20.7819C40.7512 31.8519 31.7777 40.8255 20.7077 40.8255H20.4331C20.2513 40.8255 20.0703 40.8201 19.8899 40.8094ZM7.84568 33.4294C7.69582 32.999 7.64481 32.5404 7.69644 32.0876C7.74807 31.6349 7.90101 31.1995 8.14391 30.814C8.38681 30.4284 8.71343 30.1025 9.09953 29.8604C9.48563 29.6183 9.92129 29.4663 10.3742 29.4156C18.1872 28.5508 23.2762 28.6289 31.0511 29.4337C31.5046 29.4809 31.9414 29.631 32.3281 29.8725C32.7148 30.114 33.0413 30.4406 33.2827 30.8274C33.5242 31.2142 33.6741 31.651 33.7213 32.1045C33.7684 32.558 33.7114 33.0163 33.5546 33.4444C36.887 30.0731 38.7531 25.5222 38.7469 20.7819C38.7469 10.8192 30.6703 2.74264 20.7077 2.74264C10.745 2.74264 2.66842 10.8192 2.66842 20.7819C2.66842 25.7086 4.64372 30.1743 7.84568 33.4294Z" fill="white"/>
</svg>
