<svg width="47" height="34" viewBox="0 0 47 34" fill="none" xmlns="http://www.w3.org/2000/svg">
<path fill-rule="evenodd" clip-rule="evenodd" d="M37.1924 1.02731C37.0827 1.03575 36.9093 1.01164 36.7996 0.987496C36.7996 0.999549 36.7996 1.01164 36.7996 1.02369C36.8232 1.02369 36.8468 1.02369 36.8704 1.02369C36.8704 1.03575 36.8704 1.04784 36.8704 1.02731C36.9294 1.02731 36.9884 1.02731 37.0155 1.02731C37.0155 1.07194 37.0155 1.08403 37.0155 1.06351C37.1199 1.1527 37.1435 1.22733 37.1924 1.27707C37.1924 1.20468 37.1924 1.09971 37.1924 1.02731C37.2478 1.02731 37.2714 1.02731 37.2632 1.02731C37.3193 1.18752 37.3865 1.49928 37.3304 1.64265C37.3048 1.75555 37.2465 1.82787 37.1924 1.89603C37.1889 1.94066 37.1216 1.95275 37.0862 1.93223C37.1299 2.01305 37.1417 2.06134 37.1216 2.10959C37.1417 2.10959 37.1299 2.10959 37.0862 2.10959C37.0862 2.13373 37.0862 2.15784 37.0862 2.14941C37.1063 2.14941 37.0945 2.14941 37.0508 2.14941C37.0508 2.20613 37.0508 2.23023 37.0508 2.2218C37.0709 2.2218 37.0591 2.2218 37.0155 2.2218C37.0155 2.25799 37.0155 2.32677 37.0155 2.36296C37.0355 2.36296 37.0237 2.36296 36.9801 2.36296C36.9801 2.38711 36.9801 2.41121 36.9801 2.40278C37.0001 2.40278 36.9883 2.40278 36.9765 2.40278C36.9765 2.4595 36.9765 2.48361 36.9765 2.47517C36.9529 2.5198 36.9294 2.53189 36.9058 2.51137C36.9058 2.556 36.9058 2.56809 36.9058 2.58014C36.8822 2.58014 36.8586 2.58014 36.835 2.58014C36.8468 2.58376 36.8586 2.65254 36.8704 2.65616C36.8468 2.70079 36.8232 2.71288 36.7996 2.69235C36.776 2.76475 36.7525 2.86972 36.7289 2.90953C36.7171 2.90953 36.7053 2.90953 36.6935 2.90953C36.6935 2.96625 36.6935 2.99036 36.6935 2.98193C36.6699 3.02656 36.6463 3.03865 36.6227 3.01812C36.6109 3.09895 36.5991 3.14724 36.5873 3.19549C36.5401 3.19911 36.4929 3.26788 36.4139 3.2715C36.434 3.36438 36.4222 3.42475 36.3785 3.45248C36.3868 3.49711 36.3632 3.5092 36.3078 3.48868C36.3278 3.5695 36.316 3.61779 36.2724 3.66604C36.2689 3.69018 36.2016 3.71429 36.1981 3.70586C36.1981 3.76258 36.1981 3.78668 36.1981 3.77825C36.1863 3.77825 36.1745 3.77825 36.1627 3.77825C36.0963 3.92546 36.1338 3.98537 35.9858 3.99543C35.9716 4.18738 35.902 4.2492 35.8124 4.3212C35.8124 4.37792 35.8124 4.40202 35.8124 4.39359C35.8206 4.43822 35.7971 4.45031 35.7416 4.46236C35.7499 4.50218 35.7263 4.60715 35.6709 4.64697C35.6791 4.6916 35.6555 4.70369 35.6001 4.68316C35.6202 4.75556 35.6083 4.86053 35.5647 4.90034C35.573 4.94497 35.5494 4.95706 35.4939 4.93654C35.514 5.01737 35.5022 5.06565 35.4904 5.08133C35.4159 5.25174 35.366 5.21066 35.3489 5.40709C35.5661 5.46244 36.013 5.4396 36.3078 5.40709C36.4693 5.40709 36.5991 5.40709 36.7289 5.40709C36.7289 5.45173 36.7289 5.46381 36.7289 5.44329C36.776 5.44329 36.8232 5.44329 36.8704 5.44329C36.8704 5.48792 36.8704 5.50001 36.8704 5.47949C36.9176 5.47949 36.9648 5.47949 36.9801 5.47949C36.9801 5.52412 36.9801 5.53621 36.9801 5.54826C37.0155 5.54826 37.0827 5.54826 37.0862 5.54826C37.0862 5.56031 37.0862 5.5724 37.0862 5.58446C37.1652 5.58446 37.2124 5.58446 37.2278 5.58446C37.2278 5.59651 37.2278 5.6086 37.2278 5.58808C37.2832 5.58808 37.3068 5.58808 37.3304 5.58808C37.3304 5.63271 37.3304 5.6448 37.3304 5.62427C37.3339 5.62427 37.4012 5.62427 37.4365 5.62427C37.4365 5.6689 37.4365 5.68099 37.4365 5.66047C37.4837 5.7051 37.5309 5.71719 37.5781 5.69667C37.5781 5.7413 37.5781 5.75339 37.5781 5.73286C37.617 5.77749 37.7196 5.78958 37.7585 5.80164C37.8022 5.82578 37.814 5.84989 37.7939 5.87403C37.8293 5.87403 37.8965 5.87403 37.9001 5.87403C37.9001 5.88608 37.9001 5.89817 37.9001 5.87765C37.9555 5.87765 37.9791 5.87765 37.9708 5.87765C37.9708 5.92228 37.9708 5.93437 37.9708 5.91385C38.0416 5.97057 38.1442 5.99467 38.215 5.98624C38.215 6.03087 38.215 6.04296 38.215 6.02244C38.2185 6.02244 38.2858 6.02244 38.3211 6.02244C38.3211 6.06707 38.3211 6.07916 38.3211 6.09121C38.3447 6.09121 38.3683 6.09121 38.3919 6.09121C38.4037 6.11535 38.4155 6.13946 38.4273 6.13103C38.4863 6.17566 38.5452 6.18775 38.5724 6.16722C38.616 6.22394 38.6278 6.24805 38.6078 6.23962C38.6632 6.23962 38.6868 6.23962 38.6785 6.23962C38.6785 6.28425 38.6785 6.29634 38.6785 6.27581C38.734 6.27581 38.7575 6.27581 38.7493 6.27581C38.7493 6.32044 38.7493 6.33253 38.7493 6.34458C38.8047 6.34458 38.8283 6.34458 38.8519 6.34458C38.8519 6.35664 38.8519 6.36873 38.8519 6.38078C38.8755 6.38078 38.8991 6.38078 38.9227 6.38078C38.9345 6.40492 38.9463 6.42903 38.9581 6.4206C38.997 6.47732 39.0996 6.50142 39.1704 6.49299C39.1821 6.54971 39.194 6.57382 39.2057 6.59796C39.2294 6.59796 39.2529 6.59796 39.2447 6.59796C39.2883 6.6221 39.3001 6.64621 39.2801 6.67035C39.3355 6.67035 39.3591 6.67035 39.3508 6.67035C39.3945 6.6945 39.4063 6.7186 39.3862 6.71017C39.4652 6.7548 39.5124 6.76689 39.5596 6.74637C39.5714 6.80309 39.5832 6.82719 39.595 6.81876C39.6186 6.81876 39.6421 6.81876 39.6657 6.81876C39.6657 6.86339 39.6657 6.87548 39.6657 6.88753C39.6893 6.88753 39.7129 6.88753 39.7365 6.88753C39.7601 6.89115 39.7837 6.95993 39.8073 6.96355C39.8309 6.96355 39.8545 6.96355 39.8781 6.96355C39.8898 7.02027 39.9017 7.04437 39.9134 7.03594C39.937 7.03594 39.9606 7.03594 39.9524 7.03594C39.996 7.09266 40.0078 7.11677 39.9877 7.14091C40.0231 7.15296 40.0904 7.16505 40.0939 7.17711C40.0939 7.18916 40.0939 7.20125 40.0939 7.2133C40.1293 7.22536 40.1965 7.23745 40.2 7.21692C40.2 7.27364 40.2 7.29775 40.2 7.28932C40.3234 7.34654 40.4184 7.40949 40.4796 7.46668C40.4914 7.49082 40.5032 7.51493 40.515 7.50649C40.5386 7.50649 40.5621 7.50649 40.5857 7.50649C40.5893 7.58732 40.6565 7.63561 40.6919 7.68386C40.7155 7.68386 40.7391 7.68386 40.7308 7.68386C40.8452 7.78036 40.9278 7.87693 40.9785 7.97343C41.0339 7.97343 41.0575 7.97343 41.0811 7.97343C41.1554 8.09407 41.2934 8.21475 41.3996 8.30282C41.5293 8.45604 41.6591 8.57672 41.7888 8.66478C41.7888 8.7215 41.7888 8.74561 41.7888 8.76975C41.8124 8.78181 41.836 8.7939 41.8596 8.80595C41.8596 8.818 41.8596 8.83009 41.8596 8.84215C41.8985 8.90245 42.0011 8.96279 42.0719 9.02313C42.0719 9.04727 42.0719 9.07138 42.0719 9.09552C42.0955 9.10758 42.119 9.11967 42.1426 9.09914C42.1426 9.15586 42.1426 9.17997 42.1426 9.17154C42.1898 9.20773 42.237 9.27651 42.2523 9.3127C42.2523 9.33685 42.2523 9.36095 42.2523 9.3851C42.2877 9.40924 42.3549 9.43335 42.3585 9.42491C42.4021 9.46111 42.4139 9.52988 42.3939 9.56608C42.4493 9.57813 42.4729 9.59022 42.4646 9.60227C42.4646 9.62642 42.4646 9.65052 42.4646 9.64209C42.5201 9.68672 42.5437 9.69881 42.5673 9.67829C42.579 9.75911 42.5909 9.8074 42.6026 9.85565C42.6062 9.87979 42.6734 9.9039 42.7088 9.89547C42.7088 9.95219 42.7088 9.97629 42.7088 9.96786C42.7324 10.0125 42.756 10.0246 42.7796 10.0041C42.8032 10.0764 42.8267 10.1814 42.8503 10.2212C42.8739 10.2659 42.8975 10.278 42.9211 10.2574C42.9329 10.3383 42.9447 10.3865 42.9246 10.4348C42.9801 10.4468 43.0036 10.4589 42.9954 10.4384C42.9954 10.4951 42.9954 10.5192 42.9954 10.5108C43.039 10.5108 43.0508 10.5108 43.0308 10.5108C43.0308 10.5675 43.0308 10.5916 43.0308 10.5832C43.0744 10.5832 43.0862 10.5832 43.0662 10.5832C43.0662 10.6399 43.0662 10.664 43.0662 10.6882C43.1098 10.6882 43.1216 10.6882 43.1016 10.6882C43.1016 10.7123 43.1016 10.7364 43.1016 10.728C43.1452 10.728 43.157 10.728 43.1369 10.728C43.1369 10.7847 43.1369 10.8088 43.1369 10.8004C43.1806 10.8004 43.1924 10.8004 43.1723 10.8004C43.1723 10.8571 43.1723 10.8812 43.1723 10.9054C43.216 10.9054 43.2278 10.9054 43.2077 10.9054C43.2077 10.9295 43.2077 10.9536 43.2077 10.9777C43.2513 10.9777 43.2632 10.9777 43.2749 10.9777C43.2985 11.0176 43.3221 11.1225 43.3457 11.1949C43.3575 11.1949 43.3693 11.1949 43.3811 11.1949C43.3929 11.2553 43.4047 11.3156 43.4165 11.3433C43.4283 11.3433 43.4401 11.3433 43.4519 11.3433C43.4519 11.4 43.4519 11.4242 43.4519 11.4483C43.4636 11.4483 43.4755 11.4483 43.4872 11.4483C43.4872 11.4519 43.4872 11.5207 43.4872 11.5243C43.499 11.5243 43.5108 11.5243 43.5226 11.5243C43.5344 11.6051 43.5462 11.6534 43.558 11.7017C43.5698 11.7017 43.5816 11.7017 43.5934 11.7017C43.617 11.8223 43.6406 11.943 43.6642 12.0636C43.6759 12.0636 43.6878 12.0636 43.6677 12.0636C43.6677 12.0878 43.6677 12.1119 43.6677 12.1035C43.7113 12.1035 43.7232 12.1035 43.7031 12.1035C43.7031 12.1843 43.7031 12.2326 43.7031 12.2808C43.7467 12.2808 43.7585 12.2808 43.7385 12.2808C43.7385 12.305 43.7385 12.3291 43.7385 12.3206C43.7821 12.3206 43.7939 12.3206 43.7739 12.3206C43.7739 12.4015 43.7739 12.4497 43.7739 12.498C43.8175 12.498 43.8293 12.498 43.8092 12.498C43.8092 12.5016 43.8092 12.5704 43.8092 12.6066C43.8529 12.6066 43.8647 12.6066 43.8446 12.6066C43.8446 12.6548 43.8446 12.7031 43.8446 12.7188C43.8883 12.7188 43.9001 12.7188 43.88 12.7188C43.88 12.7996 43.88 12.8479 43.88 12.8636C43.9236 12.8636 43.9355 12.8636 43.9154 12.8636C43.9154 12.9565 43.9154 13.0168 43.9154 13.0771C43.959 13.0771 43.9708 13.0771 43.9508 13.0771C43.9508 13.1375 43.9508 13.1978 43.9508 13.2255C43.9944 13.2255 44.0062 13.2255 44.018 13.2255C44.018 13.3546 44.018 13.4512 44.018 13.5151C44.0298 13.5151 44.0416 13.5151 44.0534 13.5151C44.0652 13.6683 44.077 13.789 44.0888 13.9097C44.1006 13.9097 44.1124 13.9097 44.1242 13.9097C44.1242 14.1027 44.1242 14.2958 44.1242 14.4888C44.1359 14.4888 44.1478 14.4888 44.1595 14.4888C44.1595 14.5853 44.1595 14.6819 44.1595 14.7458C44.1595 15.0317 44.1595 15.2852 44.1595 15.5385C44.1478 15.5385 44.1359 15.5385 44.1242 15.5385C44.1242 15.5868 44.1242 15.635 44.1242 15.6507C44.1078 16.4168 44.1121 17.1549 43.9154 17.7139C43.9355 17.9636 43.9236 18.1809 43.88 18.3655C43.9001 18.3655 43.8883 18.3655 43.8446 18.3655C43.8647 18.5307 43.8529 18.6635 43.8092 18.7962C43.8293 18.7962 43.8175 18.7962 43.7739 18.7962C43.7739 18.8565 43.7739 18.9169 43.7739 18.9772C43.7939 18.9772 43.7821 18.9772 43.7385 18.9772C43.7385 18.9808 43.7385 19.0496 43.7385 19.0532C43.7585 19.0532 43.7467 19.0532 43.7031 19.0532C43.7031 19.1461 43.7031 19.2064 43.7031 19.2668C43.7232 19.2668 43.7113 19.2668 43.6677 19.2668C43.6878 19.3995 43.6759 19.5322 43.6642 19.6323C43.6524 19.6323 43.6406 19.6323 43.6288 19.6323C43.6288 19.7132 43.6288 19.7615 43.6288 19.8097C43.617 19.8097 43.6052 19.8097 43.5934 19.8097C43.5934 19.8133 43.5934 19.8821 43.5934 19.8857C43.5816 19.8857 43.5698 19.8857 43.558 19.8857C43.5226 20.0872 43.4554 20.2561 43.4519 20.3925C43.4401 20.3925 43.4283 20.3925 43.4165 20.3925C43.4165 20.4853 43.4165 20.5457 43.4165 20.606C43.4047 20.606 43.3929 20.606 43.3811 20.606C43.3811 20.6543 43.3811 20.7026 43.3811 20.7182C43.3693 20.7182 43.3575 20.7182 43.3457 20.7182C43.3457 20.7544 43.3457 20.8232 43.3457 20.8594C43.3339 20.8594 43.3221 20.8594 43.3103 20.8594C43.3103 20.863 43.3103 20.9318 43.3103 20.9354C43.2985 20.9354 43.2867 20.9354 43.2749 20.9354C43.2749 21.0162 43.2749 21.0645 43.2749 21.1128C43.2632 21.1128 43.2513 21.1128 43.2077 21.1128C43.2077 21.1164 43.2077 21.1852 43.2077 21.2214C43.2278 21.2214 43.216 21.2214 43.1723 21.2214C43.1723 21.2455 43.1723 21.2696 43.1723 21.2612C43.1924 21.2612 43.1806 21.2612 43.1369 21.2612C43.1369 21.2974 43.1369 21.3662 43.1369 21.4023C43.157 21.4023 43.1452 21.4023 43.1016 21.4023C43.1098 21.4784 43.0862 21.6195 43.0308 21.7281C43.0508 21.7281 43.039 21.7281 42.9954 21.7281C42.9954 21.7523 42.9954 21.7764 42.9954 21.7679C43.0155 21.7679 43.0036 21.7679 42.96 21.7679C42.9801 21.885 42.9683 21.9694 42.9246 22.0213C42.9329 22.0659 42.9093 22.078 42.8857 22.0575C42.8739 22.1745 42.8621 22.259 42.8503 22.3109C42.8385 22.3109 42.8267 22.3109 42.8149 22.3109C42.8032 22.3917 42.7913 22.44 42.7796 22.4882C42.7678 22.4882 42.756 22.4882 42.7442 22.4882C42.7324 22.5281 42.7206 22.633 42.7088 22.7054C42.697 22.7054 42.6852 22.7054 42.6734 22.7054C42.6734 22.7296 42.6734 22.7537 42.6734 22.7778C42.6498 22.7899 42.6262 22.802 42.6026 22.814C42.6026 22.8382 42.6026 22.8623 42.6026 22.8538C42.5909 22.8538 42.579 22.8538 42.5673 22.8538C42.5673 22.9347 42.5673 22.9829 42.5673 23.0312C42.5555 23.0312 42.5437 23.0312 42.5319 23.0312C42.5083 23.071 42.4847 23.176 42.4293 23.2484C42.4493 23.2484 42.4375 23.2484 42.3939 23.2484C42.3939 23.2725 42.3939 23.2966 42.3939 23.3208C42.4139 23.3208 42.4021 23.3208 42.3585 23.3208C42.3585 23.3244 42.3585 23.3932 42.3585 23.3968C42.3667 23.4414 42.3432 23.4535 42.2877 23.433C42.2877 23.4897 42.2877 23.5138 42.2877 23.5379C42.3078 23.5379 42.296 23.5379 42.2523 23.5379C42.2523 23.5416 42.2523 23.6103 42.2523 23.6465C42.2724 23.6465 42.2606 23.6465 42.2169 23.6465C42.2169 23.6707 42.2169 23.6948 42.2169 23.6863C42.237 23.6863 42.2252 23.6863 42.1816 23.6863C42.1816 23.7431 42.1816 23.7672 42.1816 23.7913C42.1898 23.8034 42.1662 23.8155 42.1426 23.8275C42.119 23.8673 42.0955 23.9723 42.0719 24.0447C42.0483 24.0568 42.0247 24.0688 42.0011 24.0809C42.0011 24.0845 42.0011 24.1533 42.0011 24.1569C41.9893 24.1569 41.9775 24.1569 41.9657 24.1569C41.9657 24.2136 41.9657 24.2377 41.9657 24.2293C41.9539 24.2293 41.9421 24.2293 41.9303 24.2293C41.9303 24.286 41.9303 24.3101 41.9303 24.3343C41.9067 24.3463 41.8832 24.3584 41.8596 24.3705C41.836 24.4103 41.8124 24.5153 41.7888 24.5876C41.7652 24.5997 41.7416 24.6118 41.6862 24.6238C41.6862 24.648 41.6862 24.6721 41.6862 24.6962C41.7062 24.6962 41.6944 24.6962 41.6508 24.6962C41.6508 24.7204 41.6508 24.7445 41.6508 24.7361C41.659 24.7807 41.6355 24.7928 41.58 24.7722C41.58 24.829 41.58 24.8531 41.58 24.8772C41.6001 24.8772 41.5883 24.8772 41.5446 24.8772C41.5446 24.9014 41.5446 24.9255 41.5446 24.9496C41.5647 24.9496 41.5529 24.9496 41.5093 24.9496C41.5093 24.9738 41.5093 24.9979 41.5093 24.9894C41.5293 24.9894 41.5175 24.9894 41.4739 24.9894C41.4739 25.0461 41.4739 25.0703 41.4739 25.0618C41.4939 25.0618 41.4821 25.0618 41.4385 25.0618C41.4179 25.1633 41.388 25.2094 41.3642 25.279C41.3406 25.279 41.317 25.279 41.2934 25.279C41.2698 25.3514 41.2463 25.4564 41.2227 25.5288C41.1873 25.5529 41.12 25.577 41.1165 25.5686C41.1165 25.6253 41.1165 25.6494 41.1165 25.6735C41.0929 25.6856 41.0693 25.6977 41.0457 25.7097C41.0457 25.7339 41.0457 25.758 41.0457 25.7821C41.0221 25.7942 40.9986 25.8063 40.9431 25.7858C40.9431 25.8425 40.9431 25.8666 40.9431 25.8581C40.9396 25.9149 40.8723 25.939 40.837 25.9631C40.837 25.9873 40.837 26.0114 40.837 26.0355C40.8452 26.0476 40.8216 26.0597 40.7662 26.0717C40.7662 26.0958 40.7662 26.12 40.7662 26.1115C40.7509 26.1477 40.7037 26.2165 40.6565 26.2527C40.6565 26.2768 40.6565 26.3009 40.6565 26.3251C40.5905 26.4189 40.523 26.3853 40.4796 26.5423C40.456 26.5423 40.4324 26.5423 40.4088 26.5423C40.3732 26.6819 40.3051 26.656 40.2354 26.7956C40.2437 26.7956 40.2201 26.7956 40.1647 26.7956C40.1494 26.9725 39.8591 27.177 39.7365 27.3024C39.6776 27.3422 39.6186 27.4472 39.5596 27.487C39.536 27.487 39.5124 27.487 39.457 27.487C39.4417 27.5799 39.3945 27.6402 39.3154 27.668C39.3237 27.668 39.3001 27.668 39.2447 27.668C39.2447 27.7126 39.2447 27.7247 39.2447 27.7042C39.2411 27.7609 39.1739 27.785 39.1704 27.8091C39.1586 27.8333 39.1468 27.8574 39.135 27.8815C39.1114 27.8815 39.0878 27.8815 39.0642 27.8815C39.0524 27.9057 39.0406 27.9298 39.0288 27.9539C39.0052 27.9539 38.9817 27.9539 38.9581 27.9539C38.9345 27.9575 38.9109 28.0263 38.8873 28.0625C38.8637 28.0625 38.8401 28.0625 38.8165 28.0625C38.8047 28.0867 38.7929 28.1108 38.7493 28.1349C38.7575 28.1349 38.734 28.1349 38.6785 28.1349C38.6868 28.1385 38.6632 28.2073 38.6078 28.2109C38.5924 28.2555 38.5452 28.2676 38.4662 28.2471C38.4863 28.3038 38.4745 28.3279 38.4627 28.3521C38.4155 28.3641 38.3683 28.3762 38.3211 28.3883C38.3211 28.4003 38.3211 28.4124 38.3211 28.4245C38.2504 28.4486 38.1478 28.4727 38.1088 28.4643C38.1088 28.5089 38.1088 28.521 38.1088 28.5005C38.0735 28.5005 38.0062 28.5005 37.9708 28.5005C37.9708 28.5451 37.9708 28.5572 37.9708 28.5367C37.9673 28.5367 37.9001 28.5367 37.8647 28.5367C37.8647 28.5813 37.8647 28.5934 37.8647 28.6055C37.8611 28.6055 37.7939 28.6055 37.7585 28.6055C37.7585 28.6175 37.7585 28.6296 37.7585 28.6417C37.755 28.6417 37.6878 28.6417 37.6842 28.6417C37.6842 28.6537 37.6842 28.6658 37.6842 28.6779C37.5899 28.6899 37.4955 28.702 37.4012 28.7141C37.4012 28.7261 37.4012 28.7382 37.4012 28.7502C37.2832 28.7502 37.1652 28.7502 37.0155 28.7502C37.0155 28.7623 37.0155 28.7744 37.0155 28.7539C36.9412 28.7539 36.8032 28.7539 36.7289 28.7539C36.7289 28.7985 36.7289 28.8106 36.7289 28.7901C36.6109 28.7901 36.4929 28.7901 36.3432 28.7901C36.3432 28.8347 36.3432 28.8468 36.3432 28.8263C36.1981 28.8263 35.9893 28.8263 35.8124 28.8263C35.8124 28.8709 35.8124 28.883 35.8124 28.895C35.6438 28.895 35.4432 28.895 35.2427 28.895C35.2427 28.883 35.2427 28.8709 35.2427 28.8263C35.0658 28.8468 34.8888 28.8347 34.7119 28.7901C34.7119 28.8106 34.7119 28.7985 34.7119 28.7539C34.6176 28.7744 34.5232 28.7623 34.4289 28.7502C34.4171 28.7261 34.4053 28.702 34.3935 28.6779C34.3581 28.6658 34.2909 28.6537 34.2555 28.6417C34.252 28.5934 34.1847 28.5451 34.1493 28.4643C34.0689 28.3933 33.998 28.4642 33.9689 28.2109C33.9807 28.2109 33.9925 28.2109 34.0043 28.2109C34.016 28.159 34.0279 28.0746 34.0078 27.9575C34.17 27.577 34.085 27.1852 33.9335 26.868C33.9217 26.8198 33.9099 26.7715 33.8981 26.7232C33.8745 26.7112 33.8509 26.6991 33.8273 26.6545C33.8273 26.6629 33.8273 26.6388 33.8273 26.5821C33.7684 26.5664 33.7094 26.5181 33.6504 26.4699C33.6504 26.4457 33.6504 26.4216 33.6504 26.3649C33.6386 26.3649 33.6268 26.3649 33.5832 26.3649C33.5797 26.3492 33.5124 26.3009 33.477 26.2527C33.4853 26.2527 33.4617 26.2527 33.4063 26.2527C33.4027 26.2044 33.3355 26.1562 33.3001 26.0753C33.3084 26.0753 33.2848 26.0753 33.2612 26.0753C33.2376 26.0717 33.214 26.0029 33.1904 25.9993C33.1668 25.9993 33.1433 25.9993 33.1197 25.9993C33.1079 25.9752 33.0961 25.9511 33.0843 25.9269C33.0607 25.9269 33.0371 25.9269 33.0135 25.9269C33.0017 25.9028 32.9899 25.8787 32.9781 25.8219C32.9545 25.8219 32.931 25.8219 32.9074 25.8219C32.9074 25.8425 32.9074 25.8304 32.9074 25.7858C32.8838 25.7858 32.8602 25.7858 32.8047 25.7858C32.8248 25.7942 32.813 25.7701 32.7694 25.7459C32.754 25.7339 32.7068 25.7218 32.6278 25.7097C32.6479 25.6856 32.6361 25.6615 32.5924 25.6048C32.5535 25.6132 32.4509 25.5891 32.412 25.5324C32.4002 25.5408 32.3884 25.5167 32.3766 25.4926C32.3294 25.4805 32.2822 25.4684 32.2351 25.4564C32.2351 25.4443 32.2351 25.4322 32.2351 25.4202C32.1643 25.396 32.0617 25.3719 31.9909 25.3152C31.9909 25.3357 31.9909 25.3236 31.9909 25.279C31.9874 25.279 31.9201 25.279 31.8847 25.279C31.8847 25.2995 31.8847 25.2874 31.8847 25.2428C31.893 25.2428 31.8694 25.2428 31.814 25.2428C31.834 25.2512 31.8222 25.2271 31.7786 25.203C31.7633 25.1909 31.7161 25.1788 31.6689 25.1668C31.6689 25.1547 31.6689 25.1426 31.6689 25.1306C31.5628 25.0944 31.4248 25.0256 31.3186 24.9894C31.3186 25.0099 31.3186 24.9979 31.3186 24.9858C31.3268 24.9858 31.3033 24.9858 31.2478 24.9858C31.2478 24.9738 31.2478 24.9617 31.2478 24.9496C31.2561 24.9496 31.2325 24.9496 31.1771 24.9496C31.1771 24.9376 31.1771 24.9255 31.1771 24.9134C31.1853 24.9134 31.1617 24.9134 31.1063 24.9134C31.1063 24.9014 31.1063 24.8893 31.1063 24.8772C31.0674 24.8531 30.9648 24.829 30.9258 24.7722C30.9258 24.7928 30.9258 24.7807 30.9258 24.7361C30.8905 24.7361 30.8232 24.7361 30.8197 24.7361C30.8197 24.7566 30.8197 24.7445 30.8197 24.6999C30.7725 24.7204 30.7253 24.7083 30.6781 24.6962C30.6781 24.6842 30.6781 24.6721 30.6781 24.66C30.631 24.648 30.5838 24.6359 30.5048 24.6238C30.5248 24.5997 30.513 24.5756 30.4694 24.5189C30.4776 24.5189 30.4541 24.5189 30.3986 24.5189C30.3986 24.5394 30.3986 24.5273 30.3986 24.4827C30.4069 24.4827 30.3833 24.4827 30.3278 24.4827C30.3278 24.5032 30.3278 24.4911 30.3278 24.4465C30.3361 24.4465 30.3125 24.4465 30.2889 24.4465C30.2889 24.467 30.2889 24.4549 30.2889 24.4429C30.2653 24.4429 30.2418 24.4429 30.2182 24.4429C30.2064 24.4187 30.1945 24.3946 30.1828 24.3705C30.1592 24.3705 30.1356 24.3705 30.112 24.3705C30.0884 24.3343 30.0648 24.2655 30.0412 24.2293C30.0176 24.2293 29.9941 24.2293 29.9705 24.2293C29.9469 24.2257 29.9233 24.1569 29.8678 24.1533C29.8761 24.1533 29.8525 24.1533 29.7971 24.1533C29.7935 24.105 29.7263 24.0567 29.6909 23.9759C29.6992 23.9759 29.6756 23.9759 29.6202 23.9759C29.6402 23.9844 29.6284 23.9603 29.5848 23.9035C29.5812 23.9241 29.514 23.912 29.5105 23.8999C29.4751 23.8517 29.4079 23.8034 29.4043 23.7225C29.3807 23.7225 29.3571 23.7225 29.3335 23.7225C29.2982 23.7069 29.2309 23.6586 29.2274 23.6103C29.2038 23.6103 29.1802 23.6103 29.1248 23.6103C29.133 23.5741 29.1095 23.5054 29.054 23.5018C29.0623 23.5018 29.0387 23.5018 28.9832 23.5018C28.9797 23.4535 28.9125 23.4052 28.8771 23.357C28.8853 23.357 28.8618 23.357 28.8063 23.357C28.8028 23.3087 28.7355 23.2604 28.732 23.1796C28.7084 23.1796 28.6848 23.1796 28.6612 23.1796C28.6495 23.188 28.6376 23.1639 28.6259 23.1072C28.6141 23.1072 28.6023 23.1072 28.5905 23.1072C28.5787 23.1156 28.5669 23.0915 28.5551 23.0674C28.5315 23.0674 28.5079 23.0674 28.4843 23.0674C28.4607 23.0312 28.4372 22.9624 28.3817 22.9262C28.39 22.9262 28.3664 22.9262 28.3109 22.9262C28.3192 22.9226 28.2956 22.8538 28.2402 22.8176C28.2484 22.8176 28.2248 22.8176 28.1694 22.8176C28.1541 22.7899 28.1069 22.7295 28.0597 22.6367C28.0361 22.6367 28.0125 22.6367 27.9889 22.6367C27.9418 22.6089 27.8946 22.5486 27.8474 22.4882C27.8238 22.4882 27.8002 22.4882 27.7766 22.4882C27.7649 22.4641 27.753 22.44 27.7413 22.3833C27.7059 22.4038 27.6386 22.3917 27.6033 22.3471C27.5997 22.3314 27.5325 22.2831 27.4971 22.2349C27.5053 22.2349 27.4818 22.2349 27.4263 22.2349C27.411 22.1746 27.3638 22.1142 27.3166 22.0213C27.293 22.0213 27.2695 22.0213 27.2459 22.0213C27.2105 22.0056 27.1433 21.9574 27.1397 21.9091C27.1161 21.9091 27.0926 21.9091 27.069 21.9091C27.0454 21.8729 27.0218 21.8041 26.9982 21.7679C26.9746 21.7679 26.951 21.7679 26.8956 21.7679C26.9156 21.7764 26.9038 21.7523 26.8602 21.7281C26.8802 21.7281 26.8684 21.7281 26.8248 21.7281C26.8449 21.704 26.833 21.6799 26.7894 21.6557C26.7977 21.6557 26.7741 21.6557 26.7186 21.6557C26.7033 21.5954 26.6561 21.5351 26.5771 21.4747C26.5854 21.4747 26.5618 21.4747 26.5382 21.4747C26.491 21.4144 26.4438 21.3541 26.3967 21.2612C26.3731 21.2612 26.3495 21.2612 26.3259 21.2612C26.2905 21.2455 26.2233 21.1972 26.2197 21.149C26.1961 21.149 26.1726 21.149 26.1171 21.149C26.1254 21.1128 26.1018 21.044 26.0463 21.0078C26.0546 21.0078 26.031 21.0078 25.9756 21.0078C25.9367 20.9559 25.834 20.8715 25.7951 20.7544C25.7715 20.7544 25.748 20.7544 25.7243 20.7544C25.7126 20.7629 25.7007 20.7388 25.689 20.682C25.6654 20.682 25.6418 20.682 25.6182 20.682C25.5946 20.6784 25.571 20.6096 25.5474 20.606C25.5238 20.606 25.5003 20.606 25.4767 20.606C25.4295 20.5457 25.3823 20.4853 25.3033 20.3925C25.3115 20.3925 25.288 20.3925 25.2325 20.3925C25.2408 20.3888 25.2172 20.3201 25.1617 20.3165C25.17 20.3165 25.1464 20.3165 25.091 20.3165C25.0756 20.2561 25.0284 20.1958 24.9813 20.1355C24.9459 20.1234 24.8787 20.1113 24.8751 20.0993C24.8515 20.0631 24.828 19.9943 24.8044 19.9581C24.7808 19.9581 24.7572 19.9581 24.7017 19.9581C24.71 19.9545 24.6864 19.8857 24.631 19.8821C24.6392 19.8821 24.6157 19.8821 24.5602 19.8821C24.5331 19.8097 24.4741 19.7047 24.3833 19.6323C24.3915 19.6323 24.368 19.6323 24.3444 19.6323C24.309 19.6167 24.2418 19.5684 24.2382 19.5201C24.2146 19.5201 24.191 19.5201 24.1674 19.5201C24.1438 19.4839 24.1203 19.4152 24.0967 19.379C24.0731 19.379 24.0495 19.379 24.0259 19.379C24.0023 19.3753 23.9787 19.3066 23.9233 19.3029C23.9315 19.3029 23.908 19.3029 23.8525 19.3029C23.8254 19.2306 23.7664 19.1256 23.6756 19.0532C23.6838 19.0532 23.6603 19.0532 23.6048 19.0532C23.6249 19.0616 23.6131 19.0375 23.6013 19.0134C23.5895 19.0134 23.5777 19.0134 23.5659 19.0134C23.5541 18.9892 23.5423 18.9651 23.5305 18.941C23.5069 18.941 23.4834 18.941 23.4598 18.941C23.4126 18.8806 23.3654 18.8203 23.3182 18.76C23.2946 18.76 23.2711 18.76 23.2156 18.76C23.2357 18.7359 23.2239 18.7118 23.1802 18.6876C23.1767 18.6756 23.1095 18.6635 23.0741 18.6188C23.0587 18.5911 23.0115 18.5308 22.9325 18.4704C22.9408 18.4704 22.9172 18.4704 22.8618 18.4704C22.8818 18.4463 22.87 18.4222 22.8582 18.3655C22.8228 18.386 22.7556 18.3739 22.7521 18.3293C22.7167 18.3136 22.6495 18.2653 22.6459 18.2171C22.6223 18.2171 22.5988 18.2171 22.5752 18.2171C22.5515 18.1809 22.528 18.1121 22.4725 18.0759C22.4808 18.0759 22.4572 18.0759 22.4018 18.0759C22.3746 18.0361 22.3156 17.9311 22.2248 17.8913C22.2331 17.8913 22.2095 17.8913 22.1541 17.8913C22.1505 17.843 22.0833 17.7947 22.0798 17.7139C22.0562 17.7139 22.0326 17.7139 22.009 17.7139C21.9736 17.6982 21.9064 17.65 21.9029 17.6017C21.8793 17.6017 21.8557 17.6017 21.8321 17.6017C21.8085 17.5655 21.7849 17.4967 21.7295 17.4605C21.7377 17.4605 21.7141 17.4605 21.6587 17.4605C21.6434 17.4328 21.5962 17.3725 21.5172 17.2796C21.5254 17.2796 21.5018 17.2796 21.4464 17.2796C21.4429 17.2639 21.3756 17.2156 21.3721 17.1674C21.3485 17.1674 21.3249 17.1674 21.3013 17.1674C21.2659 17.1191 21.1987 17.0708 21.1952 16.99C21.1834 16.99 21.1716 16.99 21.1598 16.99C21.1598 16.9019 21.1598 16.7812 21.1598 16.628C21.148 16.628 21.1362 16.628 21.1244 16.628C21.1244 16.5641 21.1244 16.4675 21.1244 16.371C21.1237 16.1134 21.1033 15.7734 21.1598 15.5747C21.1598 15.4541 21.1598 15.3334 21.1598 15.2127C21.1716 15.2127 21.1834 15.2127 21.1952 15.2127C21.1952 15.0559 21.1952 14.899 21.1952 14.7422C21.2069 14.7422 21.2188 14.7422 21.2306 14.7422C21.2306 14.5733 21.2306 14.4043 21.2306 14.2029C21.2423 14.2029 21.2542 14.2029 21.2659 14.2029C21.2659 14.163 21.2659 14.0581 21.2659 13.9857C21.2777 13.9857 21.2895 13.9857 21.3013 13.9857C21.3013 13.9459 21.3013 13.8409 21.3013 13.7685C21.3131 13.7685 21.3249 13.7685 21.3367 13.7685C21.3367 13.7046 21.3367 13.608 21.3367 13.4789C21.3485 13.4789 21.3603 13.4789 21.3721 13.4789C21.3721 13.4271 21.3721 13.3426 21.3721 13.2255C21.3839 13.2255 21.3957 13.2255 21.3756 13.2255C21.3756 13.2099 21.3756 13.1616 21.3756 13.1133C21.4193 13.1133 21.4311 13.1133 21.411 13.1133C21.4546 13.0047 21.4665 12.8636 21.4464 12.7876C21.49 12.7876 21.5018 12.7876 21.4818 12.7876C21.4818 12.7152 21.4818 12.6102 21.4818 12.5704C21.5254 12.5704 21.5372 12.5704 21.5172 12.5704C21.5172 12.5221 21.5172 12.4739 21.5172 12.393C21.5608 12.393 21.5726 12.393 21.5525 12.393C21.5525 12.3894 21.5525 12.3206 21.5525 12.317C21.5962 12.317 21.608 12.317 21.5879 12.317C21.5879 12.2688 21.5879 12.2205 21.5879 12.1397C21.6316 12.1397 21.6434 12.1397 21.6233 12.1397C21.6233 12.1119 21.6233 12.0516 21.6233 11.9912C21.6669 11.9912 21.6788 11.9912 21.6587 11.9912C21.6587 11.9551 21.6587 11.8863 21.6587 11.8501C21.7023 11.8501 21.7141 11.8501 21.6941 11.8501C21.6941 11.8465 21.6941 11.7777 21.6941 11.7741C21.7377 11.7741 21.7495 11.7741 21.7295 11.7741C21.7295 11.7379 21.7295 11.6691 21.7295 11.6329C21.7731 11.6329 21.7849 11.6329 21.7967 11.6329C21.8203 11.5448 21.8439 11.4242 21.8675 11.2709C21.8793 11.2709 21.8911 11.2709 21.9029 11.2709C21.9029 11.2794 21.9029 11.2553 21.9029 11.2311C21.9146 11.2311 21.9265 11.2311 21.9382 11.2311C21.95 11.1467 21.9618 11.0622 21.9736 10.9777C21.9854 10.9777 21.9972 10.9777 22.009 10.9777C22.009 10.9536 22.009 10.9295 22.009 10.9054C22.0208 10.9054 22.0326 10.9054 22.0444 10.9054C22.0444 10.8692 22.0444 10.8004 22.0444 10.7642C22.0562 10.7642 22.068 10.7642 22.0798 10.7642C22.0798 10.7726 22.0798 10.7485 22.0798 10.7244C22.0916 10.7244 22.1034 10.7244 22.1152 10.7244C22.1152 10.6882 22.1152 10.6194 22.1152 10.5832C22.1269 10.5832 22.1388 10.5832 22.1187 10.5832C22.1623 10.5675 22.1741 10.5192 22.1541 10.4384C22.1977 10.4384 22.2095 10.4384 22.1895 10.4384C22.1895 10.4348 22.1895 10.366 22.1895 10.3624C22.2331 10.3624 22.2449 10.3624 22.2248 10.3624C22.2248 10.3383 22.2248 10.3142 22.2248 10.2574C22.2685 10.2574 22.2803 10.2574 22.2602 10.2574C22.2602 10.2538 22.2602 10.185 22.2602 10.1814C22.3039 10.1814 22.3157 10.1814 22.2956 10.1814C22.3511 10.109 22.3746 10.0041 22.3664 9.93166C22.41 9.93166 22.4218 9.93166 22.4018 9.93166C22.4018 9.9401 22.4018 9.91599 22.4018 9.89185C22.4454 9.89185 22.4572 9.89185 22.4372 9.89185C22.4372 9.8677 22.4372 9.8436 22.4372 9.81945C22.4808 9.81945 22.4926 9.81945 22.4725 9.81945C22.4725 9.79531 22.4725 9.7712 22.4725 9.71448C22.5162 9.71448 22.528 9.71448 22.5398 9.71448C22.5398 9.72292 22.5398 9.69881 22.5398 9.64209C22.5515 9.64209 22.5634 9.64209 22.5752 9.64209C22.5752 9.65052 22.5752 9.62642 22.5752 9.60227C22.5869 9.60227 22.5988 9.60227 22.6105 9.60227C22.6105 9.57813 22.6105 9.55402 22.6105 9.4973C22.6223 9.4973 22.6341 9.4973 22.6459 9.4973C22.6459 9.50574 22.6459 9.48163 22.6459 9.42491C22.6695 9.44544 22.6931 9.43335 22.7167 9.38872C22.7285 9.37304 22.7403 9.32476 22.7521 9.24393C22.7757 9.26445 22.7992 9.25236 22.8228 9.20773C22.8346 9.19206 22.8464 9.14377 22.8582 9.09552C22.8818 9.08347 22.9054 9.07138 22.8971 9.05933C22.8971 9.03518 22.8971 9.01108 22.8971 8.95436C22.9526 8.97488 22.9762 8.96279 22.9679 8.91816C22.9679 8.92659 22.9679 8.90249 22.9679 8.84577C23.0115 8.84577 23.0234 8.84577 23.0033 8.84577C23.0469 8.84215 23.0587 8.77337 23.0387 8.76975C23.0941 8.7577 23.1177 8.74561 23.1095 8.70098C23.1095 8.70941 23.1095 8.68531 23.1095 8.62859C23.1649 8.64911 23.1885 8.63702 23.1802 8.59239C23.1802 8.60083 23.1802 8.57672 23.1802 8.55257C23.2357 8.54052 23.2592 8.52843 23.2828 8.51638C23.2946 8.48018 23.3064 8.41141 23.3182 8.37521C23.3218 8.38365 23.389 8.35954 23.4244 8.30282C23.4244 8.31125 23.4244 8.28715 23.4244 8.263C23.448 8.25095 23.4715 8.23886 23.4951 8.22681C23.4951 8.21475 23.4951 8.20266 23.4951 8.15803C23.5187 8.17856 23.5423 8.16647 23.5659 8.12184C23.5659 8.13027 23.5659 8.10616 23.5659 8.04944C23.6249 8.03377 23.6838 7.98548 23.711 7.93723C23.711 7.91309 23.711 7.88898 23.711 7.83226C23.8608 7.75625 23.9787 7.61508 24.0967 7.50649C24.191 7.43048 24.2854 7.28932 24.3479 7.2133C24.4033 7.2133 24.4269 7.2133 24.4187 7.2133C24.4541 7.16505 24.5213 7.11677 24.5248 7.03594C24.5803 7.03594 24.6038 7.03594 24.5956 7.03594C24.6864 6.99612 24.7454 6.89115 24.8044 6.81876C24.828 6.81876 24.8515 6.81876 24.8751 6.81876C24.8869 6.82719 24.8987 6.80309 24.9105 6.74637C24.9341 6.74637 24.9577 6.74637 24.9813 6.74637C24.9848 6.73069 25.052 6.68241 25.0874 6.63416C25.111 6.63416 25.1346 6.63416 25.1264 6.63416C25.17 6.61001 25.1818 6.58591 25.1617 6.52919C25.1971 6.54971 25.2644 6.53762 25.2679 6.49299C25.2679 6.51351 25.2679 6.50142 25.2679 6.45679C25.3469 6.47732 25.3941 6.46523 25.4094 6.4206C25.4531 6.42903 25.4649 6.40492 25.4767 6.38078C25.5003 6.38078 25.5238 6.38078 25.5474 6.38078C25.5592 6.35664 25.571 6.33253 25.5828 6.27581C25.5864 6.29634 25.6536 6.28425 25.689 6.23962C25.689 6.26014 25.689 6.24805 25.689 6.20342C25.7126 6.20342 25.7361 6.20342 25.7597 6.20342C25.7597 6.22394 25.7597 6.21185 25.7597 6.16722C25.7833 6.16722 25.8069 6.16722 25.8305 6.16722C25.8305 6.18775 25.8305 6.17566 25.8305 6.13103C25.8541 6.13103 25.8777 6.13103 25.8694 6.13103C25.8694 6.15155 25.8694 6.13946 25.8694 6.12741C25.9249 6.12741 25.9484 6.12741 25.9402 6.12741C25.9402 6.11535 25.9402 6.10326 25.9402 6.09121C25.9956 6.09121 26.0192 6.09121 26.011 6.09121C26.011 6.07916 26.011 6.06707 26.011 6.02244C26.0664 6.02244 26.09 6.02244 26.0817 6.02244C26.0817 6.04296 26.0817 6.03087 26.0817 5.98624C26.1372 5.98624 26.1607 5.98624 26.1525 5.98624C26.1525 6.00676 26.1525 5.99467 26.1525 5.95004C26.2079 5.95004 26.2315 5.95004 26.2551 5.95004C26.2551 5.97057 26.2551 5.95848 26.2551 5.91385C26.294 5.92228 26.3967 5.89817 26.4674 5.87403C26.4674 5.86198 26.4674 5.84989 26.4674 5.83783C26.471 5.83783 26.5382 5.83783 26.5736 5.83783C26.5736 5.82578 26.5736 5.81369 26.5736 5.80164C26.6207 5.78958 26.6679 5.77749 26.6833 5.73286C26.6833 5.75339 26.6833 5.7413 26.6833 5.69667C26.7186 5.69667 26.7859 5.69667 26.7894 5.69667C26.7894 5.71719 26.7894 5.7051 26.7894 5.66047C26.8449 5.66047 26.8684 5.66047 26.8602 5.66047C26.8602 5.68099 26.8602 5.6689 26.8602 5.62427C26.931 5.6448 27.0336 5.63271 27.1043 5.58808C27.1043 5.6086 27.1043 5.59651 27.1043 5.58446C27.1279 5.58446 27.1515 5.58446 27.1751 5.58446C27.1751 5.5724 27.1751 5.56031 27.1751 5.54826C27.1786 5.54826 27.2459 5.54826 27.2813 5.54826C27.2813 5.53621 27.2813 5.52412 27.2813 5.47949C27.3284 5.47949 27.3756 5.47949 27.3909 5.47949C27.3909 5.50001 27.3909 5.48792 27.3909 5.44329C27.4263 5.44329 27.4936 5.44329 27.4971 5.44329C27.4971 5.46381 27.4971 5.45173 27.4971 5.40709C27.5761 5.40709 27.6233 5.40709 27.6386 5.40709C27.6386 5.42762 27.6386 5.41553 27.6386 5.3709C27.7177 5.3709 27.7649 5.3709 27.812 5.3709C27.812 5.39142 27.812 5.37933 27.812 5.3347C27.8592 5.3347 27.9064 5.3347 27.9536 5.3347C27.9536 5.35522 27.9536 5.34313 27.9536 5.33108C28.0007 5.33108 28.0479 5.33108 28.0632 5.33108C28.0632 5.31903 28.0632 5.30694 28.0632 5.29489C28.1423 5.29489 28.1895 5.29489 28.2048 5.29489C28.2048 5.28283 28.2048 5.27074 28.2048 5.25869C28.2838 5.25869 28.331 5.25869 28.3463 5.25869C28.3463 5.24664 28.3463 5.23455 28.3463 5.18992C28.5079 5.21044 28.6377 5.19835 28.7674 5.15372C28.7674 5.17424 28.7674 5.16215 28.7674 5.11752C28.8499 5.11752 28.9325 5.11752 28.9832 5.11752C28.9832 5.13805 28.9832 5.12596 28.9832 5.08133C29.1448 5.10185 29.2746 5.08976 29.4043 5.07771C29.4043 5.07771 29.4387 5.13157 29.5105 5.08133C29.5105 5.10185 29.5105 5.08976 29.5105 5.07771C29.5576 5.07771 29.6048 5.07771 29.6202 5.07771C29.6202 5.06565 29.6202 5.05356 29.6202 5.04151C29.9586 5.02946 30.2654 5.01737 30.5401 5.00531C30.9258 5.00531 31.2797 5.00531 31.6335 5.00531C31.6335 5.01737 31.6335 5.02946 31.6335 5.04151C31.7432 5.04151 31.9166 5.04151 32.0263 5.04151C32.0263 5.05356 32.0263 5.06565 32.0263 5.07771C32.1525 5.07771 32.2469 5.07771 32.3412 5.07771C32.3412 5.08976 32.3412 5.10185 32.3412 5.08133C32.3447 5.08133 32.412 5.08133 32.4474 5.08133C32.4474 5.12596 32.4474 5.13805 32.4474 5.11752C32.4945 5.11752 32.5417 5.11752 32.557 5.11752C32.557 5.16215 32.557 5.17424 32.557 5.15372C32.5924 5.15372 32.6597 5.15372 32.6632 5.15372C32.6632 5.19835 32.6632 5.21044 32.6632 5.18992C32.7422 5.18992 32.7894 5.18992 32.8047 5.18992C32.8047 5.23455 32.8047 5.24664 32.8047 5.25869C32.8602 5.25869 32.8838 5.25869 32.9074 5.25869C32.9074 5.27074 32.9074 5.28283 32.9074 5.29489C33.0253 5.30694 33.1433 5.31903 33.2612 5.33108C33.5777 5.43207 34.124 5.51449 34.4643 5.44329C34.4879 5.43967 34.5114 5.3709 34.535 5.3347C34.5468 5.3347 34.5586 5.3347 34.5704 5.3347C34.5704 5.34314 34.5704 5.31903 34.5704 5.29489C34.5822 5.29489 34.594 5.29489 34.6058 5.29489C34.6058 5.27074 34.6058 5.24663 34.6058 5.18992C34.6176 5.18992 34.6294 5.18992 34.6412 5.18992C34.6412 5.19835 34.6412 5.17424 34.6412 5.11752C34.653 5.11752 34.6648 5.11752 34.6766 5.11752C34.6766 5.12596 34.6766 5.10185 34.6766 5.07771C34.6883 5.07771 34.7002 5.07771 34.7119 5.07771C34.7119 5.05356 34.7119 5.02946 34.7119 5.00531C34.7237 5.00531 34.7355 5.00531 34.7473 5.00531C34.7473 4.98117 34.7473 4.95706 34.7473 4.90034C34.7709 4.92087 34.7945 4.90878 34.7863 4.86415C34.7863 4.86053 34.7863 4.79175 34.7863 4.78813C34.8417 4.77608 34.8653 4.76399 34.857 4.75194C34.857 4.72779 34.857 4.70369 34.857 4.64697C34.9007 4.64697 34.9125 4.64697 34.8924 4.64697C34.8924 4.6554 34.8924 4.63129 34.8924 4.57457C34.936 4.57457 34.9479 4.57457 34.9278 4.57457C34.9278 4.57095 34.9278 4.50218 34.9278 4.49856C34.9832 4.48651 35.0068 4.47442 34.9986 4.46236C35.054 4.38997 35.0776 4.285 35.0693 4.24519C35.1248 4.23313 35.1483 4.22104 35.1719 4.20899C35.1719 4.18485 35.1719 4.16074 35.1719 4.10402C35.1837 4.10402 35.1955 4.10402 35.2073 4.10402C35.2073 4.11245 35.2073 4.08835 35.2073 4.03163C35.2191 4.03163 35.2309 4.03163 35.2427 4.03163C35.2427 4.02801 35.2427 3.95923 35.2427 3.95561C35.2545 3.95561 35.2663 3.95561 35.2781 3.95561C35.2781 3.93147 35.2781 3.90736 35.2781 3.85064C35.3017 3.87117 35.3253 3.85908 35.3489 3.81445C35.4314 3.65399 35.514 3.46091 35.5647 3.2353C35.6001 3.2353 35.6673 3.2353 35.6709 3.2353C35.6709 3.25583 35.6709 3.24374 35.6709 3.19911C35.6316 3.21091 35.6721 3.23603 35.6001 3.19549C35.6437 3.19549 35.6555 3.19549 35.6355 3.19549C35.6355 3.18343 35.6355 3.17134 35.6355 3.15929C35.6355 3.14724 35.6355 3.13515 35.6355 3.12309C35.6909 3.11104 35.7145 3.09895 35.7062 3.05432C35.7062 3.0507 35.7062 2.98193 35.7062 2.94573C35.7617 2.96625 35.7853 2.95416 35.777 2.90953C35.8206 2.88181 35.8325 2.82143 35.8124 2.72855C35.856 2.72855 35.8678 2.72855 35.8796 2.72855C35.8796 2.73698 35.8796 2.71288 35.8796 2.65616C35.8914 2.65616 35.9032 2.65616 35.915 2.65616C35.915 2.66459 35.915 2.64048 35.915 2.61634C35.9268 2.61634 35.9386 2.61634 35.9504 2.61634C35.974 2.54395 35.9976 2.43898 36.0212 2.36658C36.033 2.36658 36.0448 2.36658 36.0566 2.36658C36.0566 2.36296 36.0566 2.29419 36.0566 2.25799C36.0683 2.25799 36.0802 2.25799 36.0919 2.25799C36.0919 2.26643 36.0919 2.24232 36.0919 2.1856C36.1037 2.1856 36.1155 2.1856 36.1273 2.1856C36.1273 2.19404 36.1273 2.16993 36.1273 2.11321C36.1391 2.11321 36.1509 2.11321 36.1627 2.11321C36.1745 2.09754 36.1863 2.04925 36.1981 1.96842C36.2099 1.96842 36.2217 1.96842 36.2335 1.96842C36.2335 1.9648 36.2335 1.89603 36.2335 1.85983C36.2453 1.85983 36.2571 1.85983 36.237 1.85983C36.237 1.86827 36.237 1.84416 36.237 1.82002C36.2806 1.82002 36.2925 1.82002 36.2724 1.82002C36.316 1.77177 36.3278 1.72348 36.3078 1.64265C36.3514 1.64265 36.3632 1.64265 36.3432 1.64265C36.3432 1.63903 36.3432 1.57026 36.3432 1.56664C36.3868 1.56664 36.3986 1.56664 36.3785 1.56664C36.3785 1.5425 36.3785 1.51839 36.3785 1.46167C36.4222 1.46167 36.434 1.46167 36.4139 1.46167C36.4139 1.45805 36.4139 1.38928 36.4139 1.35308C36.4743 1.31348 36.62 0.900226 36.6581 0.878906C36.7878 0.878906 36.9176 0.878906 37.0155 0.878906C37.0886 0.92817 37.1119 0.934215 37.157 0.918722C37.2006 0.954919 37.2124 1.02369 37.1924 1.02731ZM25.512 21.5508C25.512 21.6075 25.512 21.6316 25.512 21.6557C25.656 21.6933 25.6349 21.7709 25.7243 21.8041C25.748 21.8041 25.7715 21.8041 25.7951 21.8041C25.8187 21.8403 25.8423 21.9091 25.834 21.9453C25.8895 21.9453 25.9131 21.9453 25.9048 21.9453C25.9838 22.0056 26.031 22.0659 26.0463 22.0937C26.1018 22.0937 26.1254 22.0937 26.1171 22.0937C26.1961 22.1866 26.2433 22.247 26.2905 22.2747C26.3141 22.2747 26.3377 22.2747 26.3613 22.2747C26.3648 22.3555 26.432 22.4038 26.4674 22.452C26.491 22.452 26.5146 22.452 26.5382 22.452C26.55 22.4762 26.5618 22.5003 26.5736 22.5244C26.5972 22.5244 26.6207 22.5244 26.6125 22.5244C26.6915 22.5848 26.7387 22.6451 26.754 22.7054C26.8095 22.7054 26.833 22.7054 26.8248 22.7054C26.8684 22.7296 26.8802 22.7537 26.8602 22.7778C26.8956 22.7899 26.9628 22.802 26.9982 22.814C27.0454 22.8744 27.0926 22.9347 27.1397 22.995C27.1633 22.995 27.1869 22.995 27.2105 22.995C27.2577 23.0553 27.3049 23.1156 27.3202 23.1434C27.3756 23.1434 27.3992 23.1434 27.3909 23.1434C27.4464 23.1796 27.47 23.2484 27.4617 23.2846C27.5172 23.2846 27.5407 23.2846 27.5325 23.2846C27.5879 23.2882 27.6115 23.357 27.6033 23.3606C27.6587 23.3606 27.6823 23.3606 27.7059 23.3606C27.753 23.4535 27.8002 23.5138 27.8474 23.5741C27.871 23.5741 27.8946 23.5741 27.9182 23.5741C27.93 23.5983 27.9418 23.6224 27.9536 23.6465C27.9571 23.6586 28.0243 23.6707 28.0597 23.6502C28.0632 23.731 28.1305 23.7793 28.134 23.8275C28.1895 23.8275 28.213 23.8275 28.2048 23.8275C28.2402 23.8758 28.3074 23.9241 28.3109 23.9397C28.3664 23.9397 28.39 23.9397 28.3817 23.9397C28.4171 24.0206 28.4843 24.0688 28.5197 24.1171C28.5433 24.1171 28.5669 24.1171 28.5905 24.1171C28.594 24.1653 28.6612 24.2136 28.6966 24.2293C28.7202 24.2293 28.7438 24.2293 28.7674 24.2293C28.791 24.2655 28.8146 24.3343 28.8063 24.3705C28.8618 24.3705 28.8853 24.3705 28.8771 24.3705C28.9561 24.4308 29.0033 24.4911 29.0186 24.5189C29.0741 24.5189 29.0976 24.5189 29.0894 24.5189C29.1248 24.5997 29.192 24.648 29.2274 24.6962C29.251 24.6962 29.2746 24.6962 29.2982 24.6962C29.3099 24.7204 29.3218 24.7445 29.3335 24.7361C29.3571 24.7361 29.3807 24.7361 29.4043 24.7361C29.4079 24.8169 29.4751 24.8652 29.5105 24.9134C29.5341 24.9134 29.5576 24.9134 29.5494 24.9134C29.593 24.9376 29.6048 24.9617 29.5848 24.9858C29.6402 24.9858 29.6638 24.9858 29.6555 24.9858C29.6992 25.01 29.711 25.0341 29.6909 25.0256C29.7263 25.0703 29.7935 25.0823 29.7971 25.0618C29.7971 25.1064 29.7971 25.1185 29.7971 25.1306C30.6309 25.5287 31.4331 25.927 32.2351 26.3251C32.2468 26.3492 32.2587 26.3733 32.2704 26.3649C32.3176 26.4095 32.3648 26.4216 32.412 26.4011C32.4238 26.4578 32.4356 26.4819 32.4474 26.5061C32.471 26.5061 32.4945 26.5061 32.5181 26.5061C32.5181 26.5181 32.5181 26.5302 32.5181 26.5423C32.5217 26.5543 32.5889 26.5664 32.5924 26.5785C32.6361 26.6026 32.6479 26.6267 32.6278 26.6183C32.6833 26.6183 32.7068 26.6183 32.6986 26.6183C32.754 26.6545 32.7776 26.7232 32.7694 26.7594C32.8248 26.7594 32.8484 26.7594 32.8401 26.7594C32.8838 26.7836 32.8956 26.8077 32.9074 26.8318C32.9899 26.8716 33.0725 26.9766 33.155 27.049C33.2125 27.1309 33.2237 27.2037 33.2647 27.2662C33.3043 27.6211 33.2832 27.8617 33.1904 28.0987C33.1904 28.1023 33.1904 28.1711 33.1904 28.2073C33.1668 28.2194 33.1433 28.2314 33.1197 28.2109C33.1197 28.2676 33.1197 28.2917 33.1197 28.2833C33.0961 28.3279 33.0725 28.34 33.0489 28.3521C33.0489 28.3762 33.0489 28.4003 33.0489 28.4245C33.0135 28.4486 32.9463 28.4727 32.9427 28.4643C32.872 28.5813 32.7694 28.6658 32.6986 28.7502C32.7068 28.7502 32.6833 28.7502 32.6278 28.7502C32.6479 28.7744 32.6361 28.7985 32.5924 28.7901C32.6007 28.7901 32.5771 28.7901 32.5217 28.7901C32.5417 28.8468 32.5299 28.8709 32.5181 28.895C32.471 28.9071 32.4238 28.9192 32.3766 28.9312C32.3766 28.9433 32.3766 28.9554 32.3766 28.9674C32.3412 28.9674 32.274 28.9674 32.2704 28.9674C32.2704 28.9795 32.2704 28.9916 32.2704 29.0036C32.2468 29.0036 32.2233 29.0036 32.1997 29.0036C32.1997 29.0157 32.1997 29.0278 32.1997 29.0072C32.1525 29.0072 32.1053 29.0072 32.0263 29.0072C32.0263 29.0519 32.0263 29.064 32.0263 29.0434C32.0227 29.0434 31.9555 29.0434 31.9201 29.0434C31.9201 29.0881 31.9201 29.1002 31.9201 29.0796C31.8812 29.0796 31.7786 29.0796 31.7397 29.0796C31.7397 29.1243 31.7397 29.1364 31.7397 29.1484C31.5671 29.1978 31.083 29.1481 30.9612 29.0796C30.8669 29.0796 30.7725 29.0796 30.6781 29.0796C30.6781 29.1002 30.6781 29.0881 30.6781 29.0434C30.572 29.064 30.434 29.0519 30.3278 29.0072C30.3278 29.0278 30.3278 29.0157 30.3278 29.0036C30.3125 29.0036 30.2653 29.0036 30.2182 29.0036C30.2182 28.9916 30.2182 28.9795 30.2182 28.9674C30.1828 28.9674 30.1155 28.9674 30.112 28.9674C30.112 28.9554 30.112 28.9433 30.112 28.9312C30.0884 28.9312 30.0648 28.9312 30.0412 28.9312C30.0412 28.9192 30.0412 28.9071 30.0412 28.895C30.0058 28.895 29.9386 28.895 29.9351 28.895C29.9351 28.883 29.9351 28.8709 29.9351 28.8263C29.8997 28.8263 29.8325 28.8263 29.7971 28.8263C29.7971 28.8468 29.7971 28.8347 29.7971 28.7901C29.7935 28.7901 29.7263 28.7901 29.6909 28.7901C29.6909 28.8106 29.6909 28.7985 29.6909 28.7539C29.652 28.7744 29.5494 28.7623 29.5105 28.7502C29.5105 28.7382 29.5105 28.7261 29.5105 28.7141C29.4751 28.7141 29.4079 28.7141 29.4043 28.7141C29.4043 28.702 29.4043 28.6899 29.4043 28.6779C29.3454 28.6658 29.2864 28.6537 29.2274 28.6417C29.2274 28.6296 29.2274 28.6175 29.2274 28.6055C29.2038 28.6055 29.1802 28.6055 29.1248 28.6055C29.1248 28.5934 29.1248 28.5813 29.1248 28.5367C29.1212 28.5367 29.054 28.5367 29.0186 28.5367C29.0186 28.5572 29.0186 28.5451 29.0186 28.5005C29.0269 28.5005 29.0033 28.5005 28.9479 28.5005C28.9479 28.521 28.9479 28.5089 28.9479 28.4643C28.9089 28.4848 28.8063 28.4727 28.7674 28.4607C28.7674 28.4486 28.7674 28.4365 28.7674 28.4245C28.7202 28.4124 28.673 28.4003 28.6259 28.3883C28.6259 28.3762 28.6259 28.3641 28.6259 28.3521C28.5551 28.34 28.4525 28.3279 28.3817 28.2833C28.3817 28.3038 28.3817 28.2917 28.3817 28.2471C28.3546 28.2676 28.2956 28.2555 28.2048 28.2109C28.2048 28.2314 28.2048 28.2194 28.2048 28.2073C28.213 28.2073 28.1895 28.2073 28.134 28.2073C28.134 28.1952 28.134 28.1832 28.134 28.1711C28.1305 28.1711 28.0632 28.1711 28.0597 28.1711C28.0597 28.1591 28.0597 28.147 28.0597 28.1349C28.0361 28.1349 28.0125 28.1349 27.9889 28.1349C27.9889 28.1229 27.9889 28.1108 27.9889 28.0987C27.9418 28.0867 27.8946 28.0746 27.8474 28.0625C27.8474 28.0505 27.8474 28.0384 27.8474 27.9937C27.812 27.9937 27.7448 27.9937 27.7413 27.9937C27.7413 28.0143 27.7413 28.0022 27.7413 27.9575C27.7177 27.9575 27.6941 27.9575 27.6386 27.9575C27.6386 27.9781 27.6386 27.966 27.6386 27.9539C27.6115 27.9419 27.5525 27.9298 27.4617 27.9177C27.4617 27.9057 27.4617 27.8936 27.4617 27.8815C27.4582 27.8815 27.3909 27.8815 27.3556 27.8815C27.3556 27.8695 27.3556 27.8574 27.3556 27.8453C27.3638 27.8453 27.3402 27.8453 27.3166 27.8453C27.3166 27.8333 27.3166 27.8212 27.3166 27.8091C27.2695 27.7971 27.2223 27.785 27.1751 27.7404C27.1751 27.7609 27.1751 27.7488 27.1751 27.7042C27.1397 27.7042 27.0725 27.7042 27.069 27.7042C27.069 27.7247 27.069 27.7126 27.069 27.668C27.0218 27.6885 26.9746 27.6764 26.8956 27.6644C26.8956 27.6523 26.8956 27.6402 26.8956 27.6282C26.8566 27.6161 26.754 27.604 26.6833 27.592C26.6833 27.5799 26.6833 27.5678 26.6833 27.5558C26.6679 27.5437 26.6207 27.5316 26.5736 27.487C26.5736 27.5075 26.5736 27.4954 26.5736 27.4508C26.55 27.4508 26.5264 27.4508 26.5028 27.4508C26.5028 27.4713 26.5028 27.4592 26.5028 27.4146C26.4674 27.4146 26.4002 27.4146 26.3967 27.4146C26.3967 27.4351 26.3967 27.423 26.3967 27.411C26.3495 27.3989 26.3023 27.3868 26.2551 27.3748C26.2551 27.3627 26.2551 27.3506 26.2551 27.3386C26.2197 27.3386 26.1525 27.3386 26.1171 27.3386C26.1171 27.3265 26.1171 27.3144 26.1171 27.3024C26.1254 27.3024 26.1018 27.3024 26.0463 27.3024C26.0463 27.2903 26.0463 27.2782 26.0463 27.2662C26.0074 27.242 25.9048 27.2179 25.834 27.1612C25.834 27.1817 25.834 27.1697 25.834 27.125C25.8305 27.125 25.7633 27.125 25.7597 27.125C25.7597 27.1455 25.7597 27.1335 25.7597 27.1214C25.7126 27.1094 25.6654 27.0973 25.6182 27.0852C25.6182 27.0732 25.6182 27.0611 25.6182 27.049C25.5592 27.037 25.5003 27.0249 25.4094 27.0128C25.4094 27.0008 25.4094 26.9887 25.4094 26.944C25.4059 26.944 25.3387 26.944 25.3033 26.944C25.3033 26.9646 25.3033 26.9525 25.3033 26.9078C25.3115 26.9078 25.288 26.9078 25.2325 26.9078C25.2325 26.9284 25.2325 26.9163 25.2325 26.8716C25.1936 26.8801 25.091 26.856 25.052 26.8318C25.052 26.8198 25.052 26.8077 25.052 26.7956C25.0167 26.7956 24.9494 26.7956 24.9459 26.7956C24.9459 26.7836 24.9459 26.7715 24.9459 26.7594C24.9223 26.7594 24.8987 26.7594 24.8751 26.7594C24.8751 26.7474 24.8751 26.7353 24.8751 26.7232C24.8397 26.7232 24.7725 26.7232 24.769 26.7232C24.769 26.7112 24.769 26.6991 24.769 26.6545C24.7218 26.675 24.6746 26.6629 24.5956 26.6183C24.5956 26.6388 24.5956 26.6267 24.5956 26.5821C24.6038 26.5821 24.5803 26.5821 24.5248 26.5821C24.5248 26.6026 24.5248 26.5905 24.5248 26.5785C24.5213 26.5785 24.4541 26.5785 24.4187 26.5785C24.4187 26.5664 24.4187 26.5543 24.4187 26.5423C24.4033 26.5302 24.3561 26.5181 24.309 26.5061C24.309 26.494 24.309 26.4819 24.309 26.4699C24.2736 26.4699 24.2064 26.4699 24.2028 26.4699C24.2028 26.4578 24.2028 26.4457 24.2028 26.4011C24.1792 26.4011 24.1557 26.4011 24.1321 26.4011C24.1321 26.4216 24.1321 26.4095 24.1321 26.3649C24.0849 26.3854 24.0377 26.3733 23.9587 26.3287C23.9587 26.3492 23.9587 26.3371 23.9587 26.3251C23.9551 26.3251 23.8879 26.3251 23.8525 26.3251C23.8525 26.313 23.8525 26.3009 23.8525 26.2889C23.8372 26.2768 23.79 26.2647 23.711 26.2527C23.711 26.2406 23.711 26.2285 23.711 26.2165C23.6838 26.2044 23.6249 26.1923 23.5659 26.1803C23.5659 26.1682 23.5659 26.1562 23.5659 26.1115C23.5305 26.1115 23.4633 26.1115 23.4598 26.1115C23.4598 26.132 23.4598 26.12 23.4598 26.0753C23.4126 26.0958 23.3654 26.0838 23.3182 26.0717C23.3182 26.0597 23.3182 26.0476 23.3182 26.0355C23.2946 26.0355 23.2711 26.0355 23.2156 26.0355C23.2156 26.0235 23.2156 26.0114 23.2156 25.9993C23.2121 25.9993 23.1448 25.9993 23.1095 25.9993C23.1095 25.9873 23.1095 25.9752 23.1095 25.9631C23.0941 25.9511 23.0469 25.939 22.9679 25.9269C22.9679 25.9149 22.9679 25.9028 22.9679 25.8581C22.9644 25.8581 22.8971 25.8581 22.8618 25.8581C22.8618 25.8787 22.8618 25.8666 22.8618 25.8219C22.8464 25.8425 22.7992 25.8304 22.7521 25.7858C22.7521 25.8063 22.7521 25.7942 22.7521 25.7821C22.7167 25.7821 22.6495 25.7821 22.6459 25.7821C22.6459 25.7701 22.6459 25.758 22.6459 25.7459C22.6223 25.7459 22.5988 25.7459 22.5752 25.7459C22.5752 25.7339 22.5752 25.7218 22.5752 25.7097C22.5398 25.7097 22.4725 25.7097 22.4372 25.7097C22.4372 25.6977 22.4372 25.6856 22.4372 25.6735C22.4218 25.6615 22.3746 25.6494 22.2956 25.6048C22.2956 25.6253 22.2956 25.6132 22.2956 25.5686C22.2567 25.5891 22.1541 25.577 22.1152 25.5324C22.1152 25.5529 22.1152 25.5408 22.1152 25.5288C22.068 25.5167 22.0208 25.5046 21.9736 25.4926C21.9736 25.4805 21.9736 25.4684 21.9736 25.4564C21.95 25.4564 21.9265 25.4564 21.9029 25.4564C21.9029 25.4443 21.9029 25.4322 21.9029 25.4202C21.8675 25.4202 21.8002 25.4202 21.7967 25.4202C21.7967 25.4081 21.7967 25.396 21.7967 25.384C21.7731 25.384 21.7495 25.384 21.6941 25.384C21.6941 25.3719 21.6941 25.3598 21.6941 25.3152C21.6905 25.3152 21.6233 25.3152 21.5879 25.3152C21.5879 25.3357 21.5879 25.3236 21.5879 25.279C21.5962 25.279 21.5726 25.279 21.5172 25.279C21.5172 25.2995 21.5172 25.2874 21.5172 25.2428C21.49 25.2633 21.431 25.2512 21.3721 25.2392C21.3721 25.2271 21.3721 25.215 21.3721 25.203C21.3367 25.203 21.2695 25.203 21.2659 25.203C21.2659 25.1909 21.2659 25.1788 21.2659 25.1668C21.2423 25.1668 21.2188 25.1668 21.1952 25.1668C21.1952 25.1547 21.1952 25.1426 21.1952 25.1306C21.1598 25.1306 21.0926 25.1306 21.089 25.1306C21.089 25.1185 21.089 25.1064 21.089 25.0618C21.0654 25.0618 21.0418 25.0618 20.9864 25.0618C20.9864 25.0823 20.9864 25.0703 20.9864 25.0256C20.9829 25.0256 20.9156 25.0256 20.8802 25.0256C20.8802 25.0461 20.8802 25.0341 20.8802 24.9894C20.8885 24.9894 20.8649 24.9894 20.8095 24.9894C20.8095 25.0099 20.8095 24.9979 20.8095 24.9858C20.7942 24.9858 20.747 24.9858 20.6679 24.9858C20.6679 24.9738 20.6679 24.9617 20.6679 24.9496C20.629 24.9255 20.5264 24.9014 20.4875 24.8772C20.4875 24.8652 20.4875 24.8531 20.4875 24.841C20.4521 24.841 20.3849 24.841 20.3813 24.841C20.3813 24.829 20.3813 24.8169 20.3813 24.7722C20.3459 24.7722 20.2787 24.7722 20.2433 24.7722C20.2433 24.7928 20.2433 24.7807 20.2433 24.7361C20.2398 24.7361 20.1726 24.7361 20.1372 24.7361C20.1372 24.7566 20.1372 24.7445 20.1372 24.6999C20.1336 24.6999 20.0664 24.6999 20.031 24.6999C20.031 24.7204 20.031 24.7083 20.031 24.6962C20.0157 24.6962 19.9685 24.6962 19.8895 24.6962C19.8895 24.6842 19.8895 24.6721 19.8895 24.66C19.8859 24.66 19.8187 24.66 19.8152 24.66C19.8152 24.648 19.8152 24.6359 19.8152 24.6238C19.7916 24.6238 19.768 24.6238 19.7444 24.6238C19.7444 24.6118 19.7444 24.5997 19.7444 24.5876C19.709 24.5876 19.6418 24.5876 19.6383 24.5876C19.6383 24.5756 19.6383 24.5635 19.6383 24.5189C19.5911 24.5189 19.5439 24.5189 19.4649 24.5189C19.4649 24.5394 19.4649 24.5273 19.4649 24.4827C19.4377 24.4827 19.3787 24.4827 19.288 24.4827C19.288 24.5032 19.288 24.4911 19.288 24.4465C19.2255 24.4911 19.1311 24.5032 19.0367 24.4827C19.0249 24.5756 19.0131 24.6359 19.0013 24.6962C18.9896 24.6962 18.9777 24.6962 18.966 24.6962C18.9329 24.7999 18.9886 24.877 19.0013 24.9496C19.0485 24.9617 19.0957 24.9738 19.1429 24.9858C19.1429 24.9979 19.1429 25.0099 19.1429 24.9894C19.19 24.9894 19.2372 24.9894 19.2526 24.9894C19.2526 25.0341 19.2526 25.0461 19.2526 25.0256C19.288 25.0256 19.3552 25.0256 19.3587 25.0256C19.3587 25.0703 19.3587 25.0823 19.3587 25.0618C19.4377 25.0618 19.4849 25.0618 19.5003 25.0618C19.5003 25.1064 19.5003 25.1185 19.5003 25.1306C19.5356 25.1306 19.6029 25.1306 19.6383 25.1306C19.6383 25.1426 19.6383 25.1547 19.6383 25.1668C19.6418 25.1668 19.709 25.1668 19.7444 25.1668C19.7444 25.1788 19.7444 25.1909 19.7444 25.203C19.748 25.203 19.8152 25.203 19.8506 25.203C19.8506 25.215 19.8506 25.2271 19.8506 25.2392C19.8742 25.2392 19.8977 25.2392 19.8895 25.2392C19.8895 25.2512 19.8895 25.2633 19.8895 25.2428C19.9956 25.2995 20.1336 25.3236 20.2079 25.3152C20.2079 25.3598 20.2079 25.3719 20.2079 25.384C20.2787 25.396 20.3813 25.4081 20.4521 25.4202C20.4521 25.4322 20.4521 25.4443 20.4521 25.4564C20.4757 25.4564 20.4993 25.4564 20.5229 25.4564C20.5229 25.4684 20.5229 25.4805 20.5229 25.4926C20.5264 25.4926 20.5936 25.4926 20.629 25.4926C20.629 25.5046 20.629 25.5167 20.629 25.5288C20.6762 25.5408 20.7234 25.5529 20.7387 25.5324C20.7387 25.577 20.7387 25.5891 20.7387 25.5686C20.7741 25.5686 20.8413 25.5686 20.8449 25.5686C20.8449 25.6132 20.8449 25.6253 20.8449 25.6048C20.9239 25.6494 20.9711 25.6615 20.9864 25.6735C20.9864 25.6856 20.9864 25.6977 20.9864 25.7097C21.0218 25.7097 21.089 25.7097 21.1244 25.7097C21.1244 25.7218 21.1244 25.7339 21.1244 25.7459C21.1633 25.7701 21.2659 25.7942 21.3367 25.7858C21.3367 25.8304 21.3367 25.8425 21.3367 25.8219C21.3603 25.8219 21.3839 25.8219 21.3756 25.8219C21.3756 25.8666 21.3756 25.8787 21.3756 25.8581C21.411 25.8581 21.4782 25.8581 21.4818 25.8581C21.5254 25.9149 21.5372 25.939 21.5172 25.9631C21.5726 25.9631 21.5962 25.9631 21.5879 25.9631C21.5879 25.9752 21.5879 25.9873 21.5879 25.9993C21.6233 25.9993 21.6905 25.9993 21.6941 25.9993C21.6941 26.0114 21.6941 26.0235 21.6941 26.0355C21.7649 26.0597 21.8675 26.0838 21.9382 26.0753C21.9382 26.12 21.9382 26.132 21.9382 26.1115C21.9618 26.1115 21.9854 26.1115 22.009 26.1115C22.009 26.1562 22.009 26.1682 22.009 26.1803C22.0125 26.1803 22.0798 26.1803 22.1152 26.1803C22.1152 26.1923 22.1152 26.2044 22.1152 26.2165C22.1623 26.2285 22.2095 26.2406 22.2248 26.2527C22.2248 26.2647 22.2248 26.2768 22.2248 26.2889C22.3039 26.3009 22.3511 26.313 22.3664 26.3251C22.3664 26.3371 22.3664 26.3492 22.3664 26.3287C22.4454 26.3733 22.4926 26.3854 22.5398 26.3649C22.5398 26.4095 22.5398 26.4216 22.5398 26.4011C22.5433 26.4011 22.6105 26.4011 22.6459 26.4011C22.6459 26.4457 22.6459 26.4578 22.6459 26.4699C22.6695 26.4699 22.6931 26.4699 22.7167 26.4699C22.7167 26.4819 22.7167 26.494 22.7167 26.5061C22.7403 26.5061 22.7639 26.5061 22.7875 26.5061C22.7875 26.5181 22.7875 26.5302 22.7875 26.5423C22.8111 26.5423 22.8346 26.5423 22.8582 26.5423C22.8582 26.5543 22.8582 26.5664 22.8582 26.5785C22.8818 26.5785 22.9054 26.5785 22.8971 26.5785C22.8971 26.5905 22.8971 26.6026 22.8971 26.5821C22.9526 26.5821 22.9762 26.5821 22.9679 26.5821C22.9679 26.6267 22.9679 26.6388 22.9679 26.6183C23.0469 26.6629 23.0941 26.675 23.1095 26.6545C23.1095 26.6991 23.1095 26.7112 23.1095 26.7232C23.1448 26.7232 23.2121 26.7232 23.2156 26.7232C23.2156 26.7353 23.2156 26.7474 23.2156 26.7594C23.2946 26.7715 23.3418 26.7836 23.389 26.7956C23.389 26.8077 23.389 26.8198 23.389 26.8318C23.4126 26.8318 23.4362 26.8318 23.4598 26.8318C23.4598 26.8439 23.4598 26.856 23.4598 26.868C23.4834 26.868 23.5069 26.868 23.5305 26.868C23.5305 26.8801 23.5305 26.8922 23.5305 26.8716C23.5695 26.9284 23.6721 26.9525 23.711 26.944C23.711 26.9887 23.711 27.0008 23.711 27.0128C23.7818 27.0249 23.8844 27.037 23.9233 27.049C23.9233 27.0611 23.9233 27.0732 23.9233 27.0852C24.0023 27.0973 24.0495 27.1094 24.0967 27.1214C24.0967 27.1335 24.0967 27.1455 24.0967 27.125C24.1203 27.125 24.1438 27.125 24.1674 27.125C24.1674 27.1697 24.1674 27.1817 24.1674 27.1612C24.171 27.1612 24.2382 27.1612 24.2736 27.1612C24.2736 27.2059 24.2736 27.2179 24.2736 27.1974C24.2972 27.1974 24.3208 27.1974 24.3444 27.1974C24.3561 27.2541 24.368 27.2782 24.3479 27.3024C24.3833 27.3024 24.4505 27.3024 24.4541 27.3024C24.4541 27.3144 24.4541 27.3265 24.4541 27.3386C24.5095 27.3386 24.5331 27.3386 24.5248 27.3386C24.5248 27.3506 24.5248 27.3627 24.5248 27.3748C24.5803 27.3748 24.6038 27.3748 24.5956 27.3748C24.5956 27.3868 24.5956 27.3989 24.5956 27.411C24.6664 27.4351 24.769 27.4592 24.8397 27.4508C24.8397 27.4954 24.8397 27.5075 24.8397 27.487C24.8433 27.487 24.9105 27.487 24.9459 27.487C24.9459 27.5316 24.9459 27.5437 24.9459 27.5558C24.9931 27.5678 25.0403 27.5799 25.0874 27.592C25.0874 27.604 25.0874 27.6161 25.0874 27.6282C25.091 27.6282 25.1582 27.6282 25.1617 27.6282C25.1617 27.6402 25.1617 27.6523 25.1617 27.6644C25.2408 27.6764 25.288 27.6885 25.3033 27.668C25.3033 27.7126 25.3033 27.7247 25.3033 27.7042C25.3387 27.7042 25.4059 27.7042 25.4094 27.7042C25.4094 27.7488 25.4094 27.7609 25.4094 27.7404C25.4884 27.785 25.5356 27.7971 25.5828 27.8091C25.5828 27.8212 25.5828 27.8333 25.5828 27.8453C25.6064 27.8453 25.63 27.8453 25.6536 27.8453C25.6536 27.8574 25.6536 27.8695 25.6536 27.8815C25.6571 27.8815 25.7243 27.8815 25.7597 27.8815C25.7597 27.8936 25.7597 27.9057 25.7597 27.9177C25.8069 27.9298 25.8541 27.9419 25.8694 27.9539C25.8694 27.966 25.8694 27.9781 25.8694 27.9575C25.9249 27.9575 25.9484 27.9575 25.9402 27.9575C25.9402 28.0022 25.9402 28.0143 25.9402 27.9937C25.9756 27.9937 26.0428 27.9937 26.0463 27.9937C26.0463 28.0384 26.0463 28.0505 26.0463 28.0625C26.1171 28.0867 26.2197 28.1108 26.2905 28.1349C26.2905 28.147 26.2905 28.1591 26.2905 28.1711C26.3141 28.1711 26.3377 28.1711 26.3613 28.1711C26.3613 28.1832 26.3613 28.1952 26.3613 28.2073C26.3648 28.2073 26.432 28.2073 26.4674 28.2073C26.4674 28.2194 26.4674 28.2314 26.4674 28.2109C26.5146 28.2555 26.5618 28.2676 26.5771 28.2471C26.5771 28.2917 26.5771 28.3038 26.5771 28.2833C26.6326 28.2833 26.6561 28.2833 26.6479 28.2833C26.6479 28.3279 26.6479 28.34 26.6479 28.3521C26.6833 28.3521 26.7505 28.3521 26.754 28.3521C26.754 28.3641 26.754 28.3762 26.754 28.3883C26.833 28.4003 26.8802 28.4124 26.8956 28.4245C26.8956 28.4365 26.8956 28.4486 26.8956 28.4607C26.931 28.4607 26.9982 28.4607 27.0336 28.4607C27.0336 28.4727 27.0336 28.4848 27.0336 28.4643C27.0807 28.5089 27.1279 28.521 27.1751 28.5005C27.1751 28.5451 27.1751 28.5572 27.1751 28.5367C27.1987 28.5367 27.2223 28.5367 27.2459 28.5367C27.2459 28.5813 27.2459 28.5934 27.2459 28.6055C27.2494 28.6055 27.3166 28.6055 27.3202 28.6055C27.3202 28.6175 27.3202 28.6296 27.3202 28.6417C27.3756 28.6417 27.3992 28.6417 27.3909 28.6417C27.3909 28.6537 27.3909 28.6658 27.3909 28.6779C27.4263 28.6779 27.4936 28.6779 27.4971 28.6779C27.4971 28.6899 27.4971 28.702 27.4971 28.7141C27.5761 28.7261 27.6233 28.7382 27.6386 28.7502C27.6386 28.7623 27.6386 28.7744 27.6386 28.7539C27.674 28.7539 27.7413 28.7539 27.7766 28.7539C27.7766 28.7985 27.7766 28.8106 27.7766 28.7901C27.8238 28.8347 27.871 28.8468 27.9182 28.8263C27.9182 28.8709 27.9182 28.883 27.9182 28.895C27.9772 28.9071 28.0361 28.9192 28.0632 28.9312C28.0632 28.9433 28.0632 28.9554 28.0632 28.9674C28.1423 28.9795 28.1895 28.9916 28.2048 29.0036C28.2048 29.0157 28.2048 29.0278 28.2048 29.0072C28.2402 29.0072 28.3074 29.0072 28.3109 29.0072C28.3109 29.0519 28.3109 29.064 28.3109 29.0434C28.3463 29.0434 28.4136 29.0434 28.4489 29.0434C28.4489 29.0881 28.4489 29.1002 28.4489 29.0796C28.4725 29.0796 28.4961 29.0796 28.5197 29.0796C28.5197 29.1243 28.5197 29.1364 28.5197 29.1484C28.5586 29.1605 28.6612 29.1726 28.732 29.1846C28.732 29.1967 28.732 29.2087 28.732 29.2208C28.791 29.2329 28.8499 29.2449 28.8771 29.257C28.8771 29.2691 28.8771 29.2811 28.8771 29.2932C28.9325 29.2932 28.9561 29.2932 28.9479 29.2932C28.9479 29.3053 28.9479 29.3173 28.9479 29.2968C29.0186 29.3414 29.1212 29.3535 29.192 29.333C29.192 29.3776 29.192 29.3897 29.192 29.4018C29.2392 29.4138 29.2864 29.4259 29.3335 29.438C29.3335 29.45 29.3335 29.4621 29.3335 29.4742C29.4079 29.4983 29.5458 29.5224 29.6202 29.5466C29.6202 29.5586 29.6202 29.5707 29.6202 29.5502C29.6756 29.5502 29.6992 29.5502 29.6909 29.5502C29.6909 29.5948 29.6909 29.6069 29.6909 29.5864C29.7699 29.5864 29.8171 29.5864 29.8325 29.5864C29.8325 29.631 29.8325 29.6431 29.8325 29.6226C29.8678 29.6226 29.9351 29.6226 29.9705 29.6226C29.9705 29.6672 29.9705 29.6793 29.9705 29.6914C29.974 29.6914 30.0412 29.6914 30.0766 29.6914C30.0766 29.7034 30.0766 29.7155 30.0766 29.7276C30.0802 29.7276 30.1474 29.7276 30.1828 29.7276C30.1828 29.7396 30.1828 29.7517 30.1828 29.7638C30.2653 29.7758 30.3479 29.7879 30.3986 29.7999C30.3986 29.812 30.3986 29.8241 30.3986 29.8361C30.5048 29.8482 30.6428 29.8603 30.7489 29.8398C30.7489 29.8844 30.7489 29.8965 30.7489 29.876C30.8586 29.876 31.032 29.876 31.1417 29.876C31.5245 29.876 31.7388 29.8523 31.9555 29.7638C32.0699 29.7517 32.1525 29.7396 32.2351 29.7276C32.2351 29.7155 32.2351 29.7034 32.2351 29.6914C32.2587 29.6914 32.2822 29.6914 32.3058 29.6914C32.3058 29.6793 32.3058 29.6672 32.3058 29.6226C32.3094 29.6226 32.3766 29.6226 32.412 29.6226C32.412 29.6431 32.412 29.631 32.412 29.5864C32.6007 29.5864 32.7894 29.5864 32.9781 29.5864C33.4052 29.619 34.0767 29.6899 34.4289 29.5502C34.5468 29.5502 34.6648 29.5502 34.7509 29.5502C34.9714 29.5707 35.1602 29.5586 35.3489 29.5466C35.3489 29.5345 35.3489 29.5224 35.3489 29.5104C35.4786 29.5104 35.6084 29.5104 35.7062 29.5104C35.7062 29.4983 35.7062 29.4862 35.7062 29.4742C35.9032 29.4742 36.0684 29.4742 36.2335 29.4742C36.2335 29.4621 36.2335 29.45 36.2335 29.438C36.2924 29.438 36.3514 29.438 36.3785 29.438C36.3785 29.4259 36.3785 29.4138 36.3785 29.4018C36.4693 29.4018 36.5283 29.4018 36.5873 29.4018C36.5873 29.3897 36.5873 29.3776 36.5873 29.333C36.8232 29.3414 37.0591 29.3173 37.2632 29.2932C37.2632 29.2811 37.2632 29.2691 37.2632 29.257C37.3186 29.2691 37.3422 29.2811 37.3658 29.2932C37.3658 29.2811 37.3658 29.2691 37.3658 29.257C37.4129 29.257 37.4601 29.257 37.5073 29.257C37.5073 29.2449 37.5073 29.2329 37.5073 29.2208C37.5663 29.2208 37.6253 29.2208 37.6842 29.2208C37.6842 29.2087 37.6842 29.1967 37.6842 29.1846C37.7232 29.1846 37.8258 29.1846 37.8647 29.1846C37.8647 29.1726 37.8647 29.1605 37.8647 29.1484C37.9437 29.1484 37.9909 29.1484 38.0062 29.1484C38.0062 29.1364 38.0062 29.1243 38.0062 29.0796C38.0852 29.0796 38.1324 29.0796 38.1796 29.0796C38.1796 29.1002 38.1796 29.0881 38.1796 29.0434C38.1831 29.0434 38.2504 29.0434 38.2858 29.0434C38.2858 29.064 38.2858 29.0519 38.2858 29.0072C38.3247 29.0072 38.4273 29.0072 38.4662 29.0072C38.8873 28.9071 39.2766 28.7744 39.6657 28.6417C39.6657 28.6296 39.6657 28.6175 39.6657 28.6055C39.7129 28.5934 39.7601 28.5813 39.8073 28.5367C39.8073 28.5572 39.8073 28.5451 39.8073 28.5005C39.917 28.4848 40.0904 28.4365 40.2 28.3883C40.2437 28.3641 40.2555 28.34 40.2354 28.2833C40.3498 28.2917 40.4324 28.2676 40.515 28.2109C40.66 28.1349 40.8688 27.9937 41.0457 27.9177C41.0693 27.9177 41.0929 27.9177 41.1165 27.9177C41.1165 27.9057 41.1165 27.8936 41.1165 27.8815C41.1401 27.8815 41.1637 27.8815 41.1873 27.8815C41.1873 27.8695 41.1873 27.8574 41.1873 27.8453C41.2109 27.8453 41.2344 27.8453 41.258 27.8453C41.258 27.8333 41.258 27.8212 41.258 27.8091C41.2816 27.8091 41.3052 27.8091 41.3288 27.8091C41.3288 27.7971 41.3288 27.785 41.3288 27.7404C41.3524 27.7404 41.376 27.7404 41.3996 27.7404C41.4114 27.7488 41.4232 27.7247 41.435 27.668C41.4586 27.668 41.4821 27.668 41.4739 27.668C41.4739 27.6885 41.4739 27.6764 41.4739 27.6644C41.5093 27.6644 41.5765 27.6644 41.58 27.6644C41.58 27.6523 41.58 27.6402 41.58 27.6282C41.6355 27.6282 41.659 27.6282 41.6508 27.6282C41.6508 27.6161 41.6508 27.604 41.6508 27.592C41.7062 27.592 41.7298 27.592 41.7216 27.592C41.7216 27.5799 41.7216 27.5678 41.7216 27.5558C41.777 27.5558 41.8006 27.5558 41.8242 27.5558C41.8242 27.5437 41.8242 27.5316 41.8242 27.487C41.8478 27.487 41.8714 27.487 41.895 27.487C41.895 27.5075 41.895 27.4954 41.895 27.4508C41.9186 27.4508 41.9421 27.4508 41.9657 27.4508C41.9657 27.4713 41.9657 27.4592 41.9657 27.4146C42.0129 27.4351 42.0601 27.423 42.1073 27.411C42.1073 27.3989 42.1073 27.3868 42.1073 27.3748C42.1108 27.3748 42.178 27.3748 42.1816 27.3748C42.1816 27.3627 42.1816 27.3506 42.1816 27.3386C42.2606 27.3265 42.3078 27.3144 42.3231 27.3024C42.3231 27.2903 42.3231 27.2782 42.3231 27.2662C42.3585 27.2662 42.4257 27.2662 42.4293 27.2662C42.4293 27.2541 42.4293 27.242 42.4293 27.1974C42.4847 27.1974 42.5083 27.1974 42.5319 27.1974C42.5319 27.2179 42.5319 27.2059 42.5319 27.1612C42.5708 27.1697 42.6734 27.1455 42.7442 27.1214C42.7442 27.1094 42.7442 27.0973 42.7442 27.0852C42.7913 27.0852 42.8385 27.0852 42.8857 27.0852C42.8857 27.0732 42.8857 27.0611 42.8857 27.049C42.9329 27.037 42.9801 27.0249 42.9954 27.0128C42.9954 27.0008 42.9954 26.9887 42.9954 26.944C43.0308 26.944 43.098 26.944 43.1016 26.944C43.1016 26.9646 43.1016 26.9525 43.1016 26.9078C43.157 26.9078 43.1806 26.9078 43.1723 26.9078C43.1723 26.9284 43.1723 26.9163 43.1723 26.8716C43.2077 26.8716 43.2749 26.8716 43.3103 26.8716C43.3103 26.8922 43.3103 26.8801 43.3103 26.868C43.3339 26.868 43.3575 26.868 43.3811 26.868C43.3811 26.856 43.3811 26.8439 43.3811 26.8318C43.42 26.8439 43.5226 26.856 43.5934 26.868C43.5934 26.8318 43.5934 26.7631 43.5934 26.7594C43.8175 26.687 44.0416 26.5821 44.2657 26.5423C44.2657 26.5302 44.2657 26.5181 44.2657 26.5061C44.4662 26.4578 44.6667 26.4095 44.8672 26.3287C44.8672 26.3492 44.8672 26.3371 44.8672 26.3251C44.9144 26.3251 44.9616 26.3251 45.0088 26.3251C45.2464 26.2428 45.2968 26.1927 45.5395 26.2889C45.5277 26.2527 45.5159 26.1839 45.5041 26.1803C45.6693 26.1682 45.8344 26.1562 45.9677 26.1115C45.9677 26.132 45.9677 26.12 45.9677 26.0753C46.1646 26.0753 46.3298 26.0753 46.4949 26.0753C46.4949 26.12 46.4949 26.132 46.4949 26.1115C46.5338 26.1562 46.6364 26.1682 46.6754 26.1803C46.6754 26.2044 46.6754 26.2285 46.6754 26.2527C46.6718 26.2527 46.6046 26.2527 46.6011 26.2527C46.6341 26.3777 46.6891 26.3754 46.7815 26.3649C46.7815 26.3733 46.7815 26.3492 46.7815 26.3251C46.8169 26.3251 46.8841 26.3251 46.8877 26.3251C46.8877 26.3371 46.8877 26.3492 46.8877 26.3287C47.0553 26.4796 47.0076 26.6158 46.9231 26.7594C46.9431 26.7993 46.9313 26.9042 46.8877 26.944C46.9077 26.944 46.8959 26.944 46.8523 26.944C46.8523 27.0008 46.8523 27.0249 46.8523 27.049C46.8605 27.0611 46.837 27.0732 46.7815 27.0852C46.7815 27.1094 46.7815 27.1335 46.7815 27.125C46.8016 27.125 46.7898 27.125 46.7461 27.125C46.7461 27.1817 46.7461 27.2059 46.7461 27.1974C46.7544 27.242 46.7308 27.2541 46.6754 27.2662C46.6754 27.2782 46.6754 27.2903 46.6754 27.3024C46.6836 27.3144 46.66 27.3265 46.6364 27.3386C46.6364 27.3627 46.6364 27.3868 46.6364 27.411C46.6247 27.411 46.6128 27.411 46.6011 27.411C46.5498 27.4745 46.5215 27.4986 46.4949 27.592C46.4713 27.592 46.4477 27.592 46.4241 27.592C46.3592 27.8397 46.0665 27.8877 45.9677 28.1349C45.9759 28.1349 45.9524 28.1349 45.8969 28.1349C45.8344 28.2109 45.74 28.3521 45.6457 28.4607C45.6221 28.4607 45.5985 28.4607 45.5749 28.4607C45.5041 28.5451 45.4015 28.6296 45.3308 28.7141C45.339 28.7141 45.3154 28.7141 45.26 28.7141C45.2211 28.7985 45.1185 28.883 45.0795 28.9674C45.0559 28.9674 45.0324 28.9674 45.0088 28.9674C44.9616 29.0278 44.9144 29.0881 44.8672 29.1484C44.8436 29.1484 44.8201 29.1484 44.7965 29.1484C44.7965 29.1605 44.7965 29.1726 44.7965 29.1846C44.7611 29.2087 44.6938 29.2329 44.6585 29.257C44.6785 29.2811 44.6667 29.3053 44.6231 29.2968C44.6313 29.2968 44.6078 29.2968 44.5523 29.2968C44.5724 29.3535 44.5606 29.3776 44.5169 29.4018C44.5134 29.4138 44.4462 29.4259 44.4108 29.438C44.3955 29.4983 44.3483 29.5586 44.3011 29.5864C44.2775 29.5864 44.2539 29.5864 44.2303 29.5864C44.2185 29.6431 44.2067 29.6672 44.1949 29.6914C44.1713 29.6914 44.1478 29.6914 44.1242 29.6914C44.0888 29.7396 44.0215 29.7879 44.018 29.8361C43.9944 29.8361 43.9708 29.8361 43.9154 29.8361C43.9119 29.8844 43.8446 29.9327 43.8092 29.9809C43.8175 29.9809 43.7939 29.9809 43.7385 29.9809C43.7585 30.0051 43.7467 30.0292 43.7031 30.0533C43.7232 30.0533 43.7113 30.0533 43.6677 30.0533C43.6878 30.0775 43.6759 30.1016 43.6642 30.0931C43.6406 30.0931 43.617 30.0931 43.5934 30.0931C43.5816 30.1499 43.5698 30.174 43.558 30.1655C43.5344 30.1655 43.5108 30.1655 43.4872 30.1655C43.4755 30.2223 43.4636 30.2464 43.4519 30.2705C43.4283 30.2705 43.4047 30.2705 43.3811 30.2705C43.3339 30.3308 43.2867 30.3911 43.2077 30.4189C43.216 30.4189 43.1924 30.4189 43.1369 30.4189C43.157 30.4756 43.1452 30.4997 43.1016 30.5239C43.1098 30.5239 43.0862 30.5239 43.0308 30.5239C43.039 30.5275 43.0155 30.5963 42.96 30.6325C42.9683 30.6325 42.9447 30.6325 42.9211 30.6325C42.8857 30.6807 42.8185 30.729 42.8149 30.7773C42.7913 30.7773 42.7678 30.7773 42.7442 30.7773C42.7324 30.8014 42.7206 30.8255 42.7088 30.8496C42.6734 30.8617 42.6062 30.8738 42.6026 30.8858C42.6026 30.8979 42.6026 30.91 42.6026 30.8895C42.579 30.8895 42.5555 30.8895 42.5319 30.8895C42.5083 30.9257 42.4847 30.9944 42.4293 31.0306C42.4139 31.0427 42.3667 31.0548 42.2877 31.0668C42.3078 31.091 42.296 31.1151 42.2523 31.1392C42.2488 31.1513 42.1816 31.1634 42.178 31.1754C42.1544 31.179 42.1309 31.2478 42.1073 31.284C42.0837 31.284 42.0601 31.284 42.0365 31.284C42.0365 31.2961 42.0365 31.3082 42.0365 31.3202C42.0011 31.3323 41.9339 31.3443 41.9303 31.3564C41.9186 31.3805 41.9067 31.4046 41.895 31.4288C41.8714 31.4288 41.8478 31.4288 41.8242 31.4288C41.7888 31.477 41.7216 31.5253 41.6862 31.5736C41.6944 31.5736 41.6709 31.5736 41.6154 31.5736C41.6355 31.5977 41.6237 31.6218 41.58 31.646C41.5765 31.658 41.5093 31.6701 41.4739 31.6822C41.4739 31.6942 41.4739 31.7063 41.4739 31.7184C41.4821 31.7184 41.4586 31.7184 41.435 31.7184C41.4232 31.7425 41.4114 31.7666 41.3996 31.7582C41.376 31.7582 41.3524 31.7582 41.3288 31.7582C41.317 31.8149 41.3052 31.839 41.2934 31.8632C41.2698 31.8632 41.2463 31.8632 41.2227 31.8632C41.1991 31.8668 41.1755 31.9355 41.1519 31.9717C41.1283 31.9717 41.1047 31.9717 41.0811 31.9717C41.0693 31.9959 41.0575 32.02 41.0457 32.0116C41.0221 32.0116 40.9986 32.0116 40.9431 32.0116C40.9514 32.0478 40.9278 32.1165 40.8723 32.1527C40.857 32.1648 40.8098 32.1769 40.7308 32.1889C40.7391 32.1925 40.7155 32.2613 40.6919 32.2649C40.6683 32.2649 40.6447 32.2649 40.6211 32.2649C40.6093 32.3217 40.5975 32.3458 40.5857 32.3699C40.5504 32.382 40.4831 32.394 40.4796 32.4061C40.4796 32.4182 40.4796 32.4302 40.4796 32.4423C40.456 32.4423 40.4324 32.4423 40.4088 32.4423C40.397 32.4664 40.3852 32.4905 40.3734 32.5147C40.3498 32.5147 40.3263 32.5147 40.3027 32.5147C40.2909 32.5388 40.2791 32.5629 40.2354 32.5545C40.2437 32.5545 40.2201 32.5545 40.1647 32.5545C40.1847 32.6112 40.1729 32.6353 40.1293 32.6595C40.1375 32.6595 40.114 32.6595 40.0585 32.6595C40.0786 32.6836 40.0668 32.7077 40.0231 32.7319C40.0314 32.7319 40.0078 32.7319 39.9524 32.7319C39.9724 32.756 39.9606 32.7801 39.9488 32.7717C39.9252 32.7717 39.9017 32.7717 39.8781 32.7717C39.8663 32.8284 39.8545 32.8525 39.8427 32.8441C39.8191 32.8441 39.7955 32.8441 39.7719 32.8441C39.7601 32.9008 39.7483 32.9249 39.7365 32.949C39.7129 32.949 39.6893 32.949 39.6657 32.949C39.654 32.9732 39.6421 32.9973 39.6304 33.0214C39.5832 33.0335 39.536 33.0456 39.457 33.0576C39.4652 33.0613 39.4417 33.13 39.3862 33.1662C39.3945 33.1662 39.3709 33.1662 39.3154 33.1662C39.3355 33.1904 39.3237 33.2145 39.2801 33.2386C39.2883 33.2386 39.2647 33.2386 39.2093 33.2386C39.2294 33.2628 39.2175 33.2869 39.2057 33.311C39.1586 33.3231 39.1114 33.3352 39.0642 33.3146C39.0406 33.3508 39.017 33.4196 38.9934 33.4558C38.9463 33.4679 38.8991 33.4799 38.8519 33.492C38.8283 33.4956 38.8047 33.5644 38.7493 33.6006C38.734 33.6126 38.6868 33.6247 38.6078 33.6042C38.6278 33.6609 38.616 33.685 38.5724 33.7092C38.5806 33.7092 38.557 33.7092 38.5016 33.7092C38.5217 33.7333 38.5098 33.7574 38.4662 33.7816C38.4509 33.7936 38.4037 33.8057 38.3565 33.8178C38.3565 33.8298 38.3565 33.8419 38.3565 33.854C38.2268 33.866 38.097 33.8781 37.9355 33.8576C37.9355 33.8576 37.9523 33.8397 37.8293 33.854C37.5028 33.9101 36.7536 33.8539 36.237 33.854C34.606 33.8419 32.9426 33.8298 31.2478 33.8178C30.407 33.8178 29.534 33.8178 28.6612 33.8178C28.6612 33.8057 28.6612 33.7936 28.6612 33.7816C28.5197 33.7816 28.3463 33.7816 28.2048 33.7816C27.6706 33.7816 27.1043 33.7816 26.5382 33.7816C26.5382 33.7695 26.5382 33.7574 26.5382 33.7454C26.4203 33.7454 26.3023 33.7454 26.1525 33.7454C25.8382 33.7453 25.4554 33.7693 25.1617 33.6404C24.8634 33.5282 24.533 33.3508 24.2028 33.2386C24.2028 33.2266 24.2028 33.2145 24.2028 33.2024C24.1321 33.1783 24.0294 33.1542 23.9587 33.0975C23.9587 33.118 23.9587 33.1059 23.9587 33.0613C23.9551 33.0613 23.8879 33.0613 23.8525 33.0613C23.8525 33.0818 23.8525 33.0697 23.8525 33.0576C23.8608 33.0576 23.8372 33.0576 23.7818 33.0576C23.8018 33.0335 23.79 33.0094 23.7464 32.9852C23.7546 32.9852 23.731 32.9852 23.6756 32.9852C23.6756 32.9732 23.6756 32.9611 23.6756 32.949C23.6838 32.949 23.6603 32.949 23.6048 32.949C23.6048 32.937 23.6048 32.9249 23.6048 32.9128C23.6131 32.9128 23.5895 32.9128 23.5659 32.9128C23.5659 32.9008 23.5659 32.8887 23.5659 32.8441C23.5423 32.8441 23.5187 32.8441 23.4951 32.8441C23.4951 32.8646 23.4951 32.8525 23.4951 32.8079C23.4715 32.8079 23.448 32.8079 23.4244 32.8079C23.4244 32.8284 23.4244 32.8163 23.4244 32.7717C23.389 32.7922 23.3218 32.7801 23.3182 32.7681C23.3064 32.7439 23.2946 32.7198 23.2828 32.6957C23.2592 32.6957 23.2357 32.6957 23.1802 32.6957C23.1802 32.6836 23.1802 32.6715 23.1802 32.6595C23.1885 32.6595 23.1649 32.6595 23.1095 32.6595C23.1095 32.6474 23.1095 32.6353 23.1095 32.6233C23.1177 32.6233 23.0941 32.6233 23.0387 32.6233C23.0387 32.6112 23.0387 32.5991 23.0387 32.5545C23.0469 32.5545 23.0234 32.5545 22.9679 32.5545C22.9679 32.575 22.9679 32.5629 22.9679 32.5183C22.9762 32.5183 22.9526 32.5183 22.8971 32.5183C22.8971 32.5388 22.8971 32.5267 22.8971 32.5147C22.8818 32.5026 22.8346 32.4905 22.7875 32.4785C22.7757 32.4544 22.7639 32.4302 22.7521 32.4061C22.7285 32.4061 22.7049 32.4061 22.6813 32.4061C22.6813 32.394 22.6813 32.382 22.6813 32.3699C22.6577 32.3699 22.6341 32.3699 22.6105 32.3699C22.5988 32.3458 22.5869 32.3217 22.5752 32.2649C22.5044 32.2734 22.4018 32.2493 22.331 32.2251C22.3511 32.201 22.3392 32.1769 22.2956 32.1527C22.3039 32.1527 22.2803 32.1527 22.2248 32.1527C22.2449 32.1286 22.2331 32.1045 22.1895 32.0478C22.1741 32.0683 22.1269 32.0562 22.0798 32.0116C22.068 32.02 22.0562 31.9959 22.0444 31.9717C21.9972 31.9597 21.95 31.9476 21.9029 31.9355C21.8911 31.9114 21.8793 31.8873 21.8675 31.8632C21.8203 31.8511 21.7731 31.839 21.6941 31.827C21.7141 31.8028 21.7023 31.7787 21.6587 31.722C21.6434 31.7425 21.5962 31.7304 21.5172 31.7184C21.5372 31.6942 21.5254 31.6701 21.4818 31.646C21.49 31.646 21.4665 31.646 21.411 31.646C21.411 31.6339 21.411 31.6218 21.411 31.6098C21.4193 31.6098 21.3957 31.6098 21.3721 31.6098C21.3485 31.5736 21.3249 31.5048 21.3013 31.4686C21.2777 31.4686 21.2542 31.4686 21.2306 31.4686C21.2188 31.477 21.2069 31.4529 21.1952 31.4288C21.1244 31.4046 21.0218 31.3805 20.951 31.3564C20.9711 31.3323 20.9593 31.3082 20.9156 31.284C20.9003 31.272 20.8531 31.2599 20.7741 31.2152C20.7741 31.2358 20.7741 31.2237 20.7741 31.179C20.7706 31.1996 20.7033 31.1875 20.6679 31.1754C20.688 31.1513 20.6762 31.1272 20.6326 31.103C20.6408 31.103 20.6172 31.103 20.5936 31.103C20.5819 31.0789 20.57 31.0548 20.5583 31.0306C20.5346 31.0306 20.5111 31.0306 20.4875 31.0306C20.4757 31.0065 20.4639 30.9824 20.4521 30.9257C20.4285 30.9257 20.4049 30.9257 20.3813 30.9257C20.3695 30.9341 20.3577 30.91 20.3459 30.8858C20.2752 30.8617 20.1726 30.8376 20.1018 30.8135C20.1219 30.7893 20.11 30.7652 20.0664 30.7411C20.0747 30.7411 20.0511 30.7411 19.9956 30.7411C20.0157 30.7169 20.0039 30.6928 19.9603 30.6361C19.9685 30.6361 19.9449 30.6361 19.8895 30.6361C19.9095 30.6445 19.8977 30.6204 19.886 30.5963C19.8623 30.5963 19.8388 30.5963 19.8152 30.5963C19.8152 30.5842 19.8152 30.5721 19.8152 30.5601C19.7798 30.548 19.7126 30.5359 19.709 30.5239C19.6972 30.4997 19.6854 30.4756 19.6736 30.4189C19.65 30.4189 19.6265 30.4189 19.6029 30.4189C19.5911 30.4273 19.5793 30.4032 19.5675 30.3465C19.5439 30.3465 19.5203 30.3465 19.4649 30.3465C19.4849 30.3549 19.4731 30.3308 19.4295 30.3067C19.4377 30.3067 19.4142 30.3067 19.3587 30.3067C19.3788 30.2826 19.367 30.2584 19.3233 30.2343C19.308 30.2223 19.2608 30.2102 19.1818 30.1655C19.1818 30.1861 19.1818 30.174 19.1818 30.1293C19.1783 30.1499 19.111 30.1378 19.1075 30.0931C19.0957 30.1016 19.0839 30.0775 19.0721 30.0533C19.0485 30.0533 19.0249 30.0533 19.0013 30.0533C18.9896 30.0292 18.9777 30.0051 18.966 29.9809C18.9424 29.9809 18.9188 29.9809 18.8952 29.9809C18.8952 29.9689 18.8952 29.9568 18.8952 29.9447C18.8598 29.9327 18.7926 29.9206 18.7572 29.876C18.7773 29.8844 18.7654 29.8603 18.7218 29.8361C18.7301 29.8361 18.7065 29.8361 18.651 29.8361C18.6711 29.812 18.6593 29.7879 18.6157 29.7638C18.6239 29.7638 18.6003 29.7638 18.5449 29.7638C18.5649 29.7396 18.5531 29.7155 18.5095 29.6914C18.5177 29.6914 18.4942 29.6914 18.4387 29.6914C18.4588 29.6672 18.447 29.6431 18.4033 29.5864C18.388 29.6069 18.3408 29.5948 18.2937 29.5502C18.2819 29.5586 18.2701 29.5345 18.2583 29.5104C18.2347 29.5104 18.2111 29.5104 18.1875 29.5104C18.1639 29.4742 18.1403 29.4054 18.1167 29.4018C18.0931 29.4018 18.0696 29.4018 18.0141 29.4018C18.0342 29.3776 18.0224 29.3535 17.9787 29.2968C17.987 29.2968 17.9634 29.2968 17.908 29.2968C17.928 29.3053 17.9162 29.2811 17.8726 29.257C17.8808 29.257 17.8573 29.257 17.8018 29.257C17.8219 29.2329 17.8101 29.2087 17.7664 29.1846C17.7747 29.1846 17.7511 29.1846 17.6957 29.1846C17.7157 29.1605 17.7039 29.1364 17.6603 29.0796C17.645 29.1002 17.5978 29.0881 17.5506 29.0434C17.5388 29.0519 17.527 29.0278 17.5152 29.0036C17.4916 29.0036 17.468 29.0036 17.4444 29.0036C17.4208 28.9674 17.3973 28.8987 17.3737 28.895C17.3501 28.895 17.3265 28.895 17.2711 28.895C17.2911 28.8709 17.2793 28.8468 17.2357 28.7901C17.2203 28.8106 17.1731 28.7985 17.0941 28.7539C17.1142 28.7623 17.1024 28.7382 17.0587 28.7141C17.067 28.7141 17.0434 28.7141 16.988 28.7141C16.9962 28.6779 16.9727 28.6091 16.9172 28.6055C16.9255 28.6055 16.9019 28.6055 16.8783 28.6055C16.8665 28.5813 16.8547 28.5572 16.8429 28.5005C16.7957 28.521 16.7485 28.5089 16.7014 28.4643C16.7014 28.4848 16.7014 28.4727 16.7014 28.4607C16.666 28.4486 16.5988 28.4365 16.5952 28.4245C16.5834 28.4003 16.5716 28.3762 16.528 28.3521C16.5362 28.3521 16.5127 28.3521 16.4572 28.3521C16.4655 28.3159 16.4419 28.2471 16.3864 28.2109C16.3947 28.2109 16.3711 28.2109 16.3157 28.2109C16.3357 28.2194 16.3239 28.1952 16.2803 28.1711C16.2768 28.1591 16.2095 28.147 16.1741 28.1349C16.1741 28.1229 16.1741 28.1108 16.1741 28.0987C16.1824 28.0987 16.1588 28.0987 16.1352 28.0987C16.1234 28.0746 16.1116 28.0505 16.0998 27.9937C16.0762 27.9937 16.0527 27.9937 16.0291 27.9937C16.0173 28.0022 16.0055 27.9781 15.9937 27.9539C15.9701 27.9539 15.9465 27.9539 15.9229 27.9539C15.9111 27.9298 15.8993 27.9057 15.8875 27.8815C15.8404 27.8695 15.7932 27.8574 15.7141 27.8453C15.7224 27.8091 15.6988 27.7404 15.6434 27.7042C15.6516 27.7042 15.6281 27.7042 15.5726 27.7042C15.5726 27.7247 15.5726 27.7126 15.5726 27.668C15.5691 27.6885 15.5018 27.6764 15.4665 27.6644C15.4865 27.6402 15.4747 27.6161 15.4311 27.592C15.4393 27.592 15.4158 27.592 15.3921 27.592C15.3685 27.5558 15.345 27.487 15.3214 27.4508C15.2978 27.4508 15.2742 27.4508 15.2506 27.4508C15.2388 27.4592 15.227 27.4351 15.2152 27.411C15.1681 27.3989 15.1209 27.3868 15.0418 27.3748C15.0418 27.3627 15.0418 27.3506 15.0418 27.3386C15.0383 27.3265 14.9711 27.3144 14.9357 27.3024C14.9558 27.2782 14.9439 27.2541 14.9003 27.1974C14.9086 27.1974 14.885 27.1974 14.8295 27.1974C14.8378 27.1938 14.8142 27.125 14.7588 27.1214C14.767 27.1214 14.7434 27.1214 14.688 27.1214C14.688 27.1094 14.688 27.0973 14.688 27.0852C14.6845 27.0732 14.6172 27.0611 14.6137 27.049C14.6019 27.0249 14.5901 27.0008 14.5783 26.944C14.5547 26.944 14.5311 26.944 14.5075 26.944C14.4839 26.9404 14.4604 26.8716 14.4368 26.868C14.3896 26.856 14.3424 26.8439 14.2634 26.8318C14.2634 26.8198 14.2634 26.8077 14.2634 26.7956C14.2599 26.7836 14.1926 26.7715 14.1572 26.7594C14.1773 26.7353 14.1655 26.7112 14.1219 26.6545C14.1065 26.675 14.0593 26.6629 13.9803 26.6183C13.9886 26.6147 13.965 26.5459 13.9414 26.5423C13.9178 26.5423 13.8942 26.5423 13.8706 26.5423C13.8588 26.5181 13.847 26.494 13.8352 26.4699C13.8116 26.4699 13.7881 26.4699 13.7645 26.4699C13.7409 26.4337 13.7173 26.3649 13.6937 26.3287C13.6701 26.3287 13.6465 26.3287 13.5911 26.3287C13.6112 26.3371 13.5993 26.313 13.5557 26.2889C13.5522 26.2768 13.4849 26.2647 13.4496 26.2527C13.4496 26.2406 13.4496 26.2285 13.4496 26.2165C13.4342 26.2044 13.387 26.1923 13.308 26.1803C13.3281 26.1562 13.3163 26.132 13.2726 26.0753C13.2809 26.0753 13.2573 26.0753 13.2019 26.0753C13.2101 26.0717 13.1865 26.0029 13.1629 25.9993C13.1393 25.9993 13.1158 25.9993 13.0922 25.9993C13.0804 25.9752 13.0686 25.9511 13.0568 25.9269C13.0332 25.9269 13.0096 25.9269 12.986 25.9269C12.9742 25.9028 12.9624 25.8787 12.9506 25.8219C12.927 25.8219 12.9035 25.8219 12.848 25.8219C12.8681 25.8304 12.8563 25.8063 12.8126 25.7821C12.8209 25.7821 12.7973 25.7821 12.7419 25.7821C12.7619 25.758 12.7501 25.7339 12.7065 25.7097C12.7147 25.7097 12.6912 25.7097 12.6357 25.7097C12.6558 25.6856 12.644 25.6615 12.6003 25.6048C12.585 25.6253 12.5378 25.6132 12.4588 25.5686C12.4789 25.577 12.467 25.5529 12.4553 25.5288C12.4081 25.5167 12.3609 25.5046 12.3137 25.4926C12.3019 25.4684 12.2901 25.4443 12.2783 25.4202C12.2547 25.4202 12.2312 25.4202 12.2076 25.4202C12.1958 25.396 12.184 25.3719 12.1722 25.3152C12.125 25.3357 12.0778 25.3236 11.9988 25.279C11.9988 25.2995 11.9988 25.2874 11.9988 25.2428C12.007 25.2428 11.9835 25.2428 11.928 25.2428C11.928 25.2633 11.928 25.2512 11.928 25.2392C11.8891 25.215 11.7865 25.1909 11.7157 25.1668C11.7157 25.1547 11.7157 25.1426 11.7157 25.1306C11.7122 25.1306 11.645 25.1306 11.6414 25.1306C11.6414 25.1185 11.6414 25.1064 11.6414 25.0618C11.5943 25.0618 11.547 25.0618 11.4999 25.0618C11.4999 25.0823 11.4999 25.0703 11.4999 25.0256C11.4527 25.0256 11.4055 25.0256 11.3265 25.0256C11.3265 25.0461 11.3265 25.0341 11.3265 24.9894C11.2994 24.9894 11.2404 24.9894 11.1496 24.9894C11.1496 25.0099 11.1496 24.9979 11.1496 24.9858C11.0871 24.9858 10.9927 24.9858 10.8983 24.9858C10.8983 24.9738 10.8983 24.9617 10.8983 24.9496C10.6271 24.9255 10.3558 24.9014 10.0845 24.8772C9.8756 24.817 9.52045 24.9025 9.30606 24.841C9.04068 24.7649 8.60573 24.8049 8.24807 24.7722C7.90208 24.8048 7.39195 24.7503 7.07685 24.841C6.45179 24.8531 5.82655 24.8652 5.16964 24.8772C5.16964 24.8893 5.16964 24.9014 5.16964 24.9134C5.001 24.9134 4.80044 24.9134 4.56811 24.9134C4.56811 24.9255 4.56811 24.9376 4.56811 24.9496C4.42303 24.9496 4.21426 24.9496 4.06919 24.9496C4.06919 24.9617 4.06919 24.9738 4.06919 24.9858C3.83332 24.9979 3.59738 25.0099 3.3615 24.9894C3.18239 25.0266 2.7541 25.1041 2.6892 25.0256C2.50322 24.9984 2.61182 25.0165 2.54767 24.8772C2.53588 24.8772 2.52406 24.8772 2.48044 24.8772C2.48044 24.8531 2.48044 24.829 2.48044 24.7722C2.5005 24.7722 2.48868 24.7722 2.44505 24.7722C2.44505 24.7686 2.44505 24.6999 2.44505 24.6962C2.46511 24.6962 2.4533 24.6962 2.40967 24.6962C2.40967 24.6721 2.40967 24.648 2.40967 24.6238C2.42973 24.6238 2.41791 24.6238 2.37428 24.6238C2.37428 24.5756 2.37428 24.5273 2.37428 24.4465C2.39435 24.4465 2.38253 24.4465 2.3389 24.4465C2.3389 24.4429 2.3389 24.3741 2.3389 24.3705C2.35896 24.3705 2.34714 24.3705 2.30351 24.3705C2.30351 24.3343 2.30351 24.2655 2.30351 24.2293C2.31176 24.2498 2.28819 24.2377 2.23275 24.1931C2.25281 24.1533 2.24099 24.0483 2.19736 23.9759C2.20561 23.9964 2.18204 23.9844 2.12659 23.9397C2.12659 23.9482 2.12659 23.9241 2.12659 23.8999C2.14666 23.8999 2.13484 23.8999 2.09121 23.8999C2.09121 23.8517 2.09121 23.8034 2.09121 23.7225C2.11127 23.7225 2.09945 23.7225 2.05582 23.7225C2.06407 23.6827 2.0405 23.5778 2.0169 23.5379C2.00512 23.5379 1.9933 23.5379 1.98152 23.5379C1.96974 23.4656 1.95792 23.3606 1.94613 23.3208C1.92253 23.3087 1.89897 23.2966 1.87537 23.2846C1.86358 23.2122 1.85176 23.1072 1.83998 23.0674C1.8282 23.0674 1.81638 23.0674 1.8046 23.0674C1.79281 22.995 1.781 22.89 1.73737 22.8176C1.75743 22.8176 1.74561 22.8176 1.70198 22.8176C1.70198 22.8261 1.70198 22.802 1.70198 22.7778C1.72205 22.7778 1.71023 22.7778 1.6666 22.7778C1.68666 22.7054 1.67484 22.6005 1.63121 22.5606C1.63946 22.5486 1.61589 22.5365 1.56045 22.5244C1.58051 22.4641 1.56869 22.4038 1.52506 22.3109C1.54512 22.3109 1.53331 22.3109 1.48968 22.3109C1.48968 22.3073 1.48968 22.2385 1.48968 22.2349C1.50974 22.2349 1.49792 22.2349 1.45429 22.2349C1.47436 22.1866 1.46254 22.1383 1.41891 22.0575C1.43897 22.0575 1.42715 22.0575 1.38352 22.0575C1.40359 22.0177 1.39177 21.9127 1.34814 21.8403C1.35638 21.8608 1.33282 21.8488 1.30922 21.8041C1.30922 21.8126 1.30922 21.7885 1.30922 21.7643C1.29743 21.7643 1.28562 21.7643 1.27383 21.7643C1.26205 21.6799 1.25023 21.5954 1.23845 21.4784C1.22667 21.4784 1.21485 21.4784 1.20306 21.4784C1.19128 21.4627 1.17946 21.4144 1.16768 21.3662C1.1559 21.3662 1.14408 21.3662 1.1323 21.3662C1.1323 21.3179 1.1323 21.2696 1.1323 21.2214C1.12051 21.2214 1.10869 21.2214 1.09691 21.2214C1.09691 21.1972 1.09691 21.1731 1.09691 21.149C1.08513 21.149 1.07331 21.149 1.06153 21.149C1.06153 21.1248 1.06153 21.1007 1.06153 21.044C1.04974 21.044 1.03793 21.044 0.994298 21.044C0.994298 21.0524 0.994298 21.0283 0.994298 20.9716C1.01436 20.9716 1.00254 20.9716 0.958913 20.9716C0.958913 20.968 0.958913 20.8992 0.958913 20.8956C0.978976 20.8956 0.967158 20.8956 0.923529 20.8956C0.923529 20.8715 0.923529 20.8473 0.923529 20.8232C0.943592 20.8232 0.931774 20.8232 0.888145 20.8232C0.908208 20.775 0.896389 20.7267 0.85276 20.6784C0.872823 20.6784 0.861005 20.6784 0.817376 20.6784C0.837439 20.594 0.825621 20.5095 0.781992 20.3925C0.790236 20.413 0.766671 20.4009 0.711223 20.3888C0.711223 20.3647 0.711223 20.3406 0.711223 20.3165C0.731286 20.3165 0.719468 20.3165 0.675839 20.3165C0.695902 20.2441 0.684084 20.1391 0.640455 20.0993C0.660518 20.0993 0.6487 20.0993 0.605071 20.0993C0.625134 20.051 0.613315 20.0027 0.569686 19.9219C0.589749 19.9219 0.577931 19.9219 0.566148 19.9219C0.566148 19.9183 0.566148 19.8495 0.566148 19.8459C0.554365 19.8459 0.542547 19.8459 0.530764 19.8459C0.530764 19.8218 0.530764 19.7976 0.530764 19.7735C0.518981 19.7735 0.507162 19.7735 0.49538 19.7735C0.49538 19.7373 0.49538 19.6685 0.49538 19.6323C0.483597 19.6323 0.471778 19.6323 0.459995 19.6323C0.459995 19.6408 0.459995 19.6167 0.459995 19.5925C0.448212 19.5925 0.436394 19.5925 0.424611 19.5925C0.412828 19.5201 0.40101 19.4152 0.389227 19.3428C0.365625 19.3633 0.34206 19.3512 0.318458 19.3391C0.306675 19.2668 0.294857 19.1618 0.251228 19.0894C0.271291 19.0894 0.259473 19.0894 0.215844 19.0894C0.215844 19.0978 0.215844 19.0737 0.215844 19.0496C0.235907 19.0496 0.224088 19.0496 0.18046 19.0496C0.16712 18.9591 0.183361 18.8567 0.109691 18.76C0.129754 18.76 0.117936 18.76 0.0743069 18.76C0.0743069 18.7359 0.0743069 18.7118 0.0743069 18.6876C0.0943698 18.6876 0.0825515 18.6876 0.0389227 18.6876C0.0138352 18.5759 0.00463534 18.4941 0 18.2931C0.0924237 18.2756 0.0599055 18.2616 0.18046 18.2533C0.29422 18.1842 0.440852 18.2541 0.566148 18.2171C0.566148 18.205 0.566148 18.1929 0.566148 18.1809C0.813802 18.1809 1.06156 18.1809 1.30922 18.1809C1.30922 18.1809 1.31007 18.1507 1.34814 18.1447C1.5097 18.1447 1.63949 18.1447 1.73737 18.1447C1.73737 18.1326 1.73737 18.1205 1.73737 18.0759C1.88715 18.0759 2.00512 18.0759 2.09121 18.0759C2.09121 18.0964 2.09121 18.0843 2.09121 18.0397C2.21739 18.0397 2.31179 18.0397 2.37428 18.0397C2.37428 18.0602 2.37428 18.0481 2.37428 18.0035C2.44505 18.0035 2.54767 18.0035 2.61843 18.0035C2.61843 18.024 2.61843 18.0119 2.61843 17.9673C2.6656 17.9673 2.7128 17.9673 2.75997 17.9673C2.75997 17.9878 2.75997 17.9757 2.75997 17.9637C2.80714 17.9637 2.85434 17.9637 2.86966 17.9637C2.86966 17.9516 2.86966 17.9395 2.86966 17.9275C2.96046 17.9275 3.01944 17.9275 3.04658 17.9275C3.04658 17.9154 3.04658 17.9033 3.04658 17.8913C3.15274 17.8792 3.29074 17.8671 3.39689 17.8225C3.39689 17.843 3.39689 17.8309 3.39689 17.7863C3.54196 17.7947 3.75073 17.7706 3.89581 17.7139C3.89581 17.7344 3.89581 17.7224 3.89581 17.7103C3.93119 17.7103 3.99842 17.7103 4.0338 17.7103C4.0338 17.6982 4.0338 17.6862 4.0338 17.6741C4.09279 17.6741 4.15178 17.6741 4.21073 17.6741C4.21073 17.6621 4.21073 17.65 4.21073 17.6379C4.21426 17.6379 4.28149 17.6379 4.28503 17.6379C4.28503 17.6259 4.28503 17.6138 4.28503 17.6017C4.37583 17.6017 4.43481 17.6017 4.46195 17.6017C4.46195 17.5897 4.46195 17.5776 4.46195 17.5329C4.54097 17.5329 4.58817 17.5329 4.60349 17.5329C4.60349 17.5535 4.60349 17.5414 4.60349 17.4967C4.69429 17.4967 4.75331 17.4967 4.81226 17.4967C5.80769 17.1975 6.91741 17.0099 7.8553 16.6244C8.00862 16.5882 8.16198 16.5194 8.28345 16.4832C8.28345 16.5038 8.28345 16.4917 8.28345 16.447C8.3389 16.447 8.36247 16.447 8.35422 16.447C8.35422 16.4676 8.35422 16.4555 8.35422 16.4108C8.38961 16.4108 8.45684 16.4108 8.49222 16.4108C8.49222 16.4314 8.49222 16.4193 8.49222 16.3746C8.51582 16.3746 8.53939 16.3746 8.56299 16.3746C8.56299 16.3952 8.56299 16.3831 8.56299 16.371C8.56653 16.371 8.63376 16.371 8.66914 16.371C8.66914 16.359 8.66914 16.3469 8.66914 16.3348C8.67268 16.3348 8.73991 16.3348 8.74345 16.3348C8.74345 16.3228 8.74345 16.3107 8.74345 16.2986C8.82246 16.2866 8.86966 16.2745 8.88499 16.2624C8.88499 16.2504 8.88499 16.2383 8.88499 16.1937C8.92037 16.1937 8.9876 16.1937 8.99114 16.1937C8.99114 16.2142 8.99114 16.2021 8.99114 16.1575C9.04659 16.1575 9.07015 16.1575 9.06191 16.1575C9.06191 16.178 9.06191 16.1659 9.06191 16.1213C9.14092 16.1418 9.18812 16.1297 9.23529 16.0851C9.23529 16.1056 9.23529 16.0935 9.23529 16.0815C9.23883 16.0815 9.30606 16.0815 9.34144 16.0815C9.34144 16.0694 9.34144 16.0573 9.34144 16.0453C9.36504 16.0453 9.38861 16.0453 9.41221 16.0453C9.41221 16.0332 9.41221 16.0211 9.41221 16.0091C9.45938 15.997 9.50658 15.9849 9.5219 15.9403C9.5219 15.9608 9.5219 15.9487 9.5219 15.9041C9.55729 15.9041 9.62452 15.9041 9.62805 15.9041C9.62805 15.9246 9.62805 15.9125 9.62805 15.8679C9.6835 15.8679 9.70707 15.8679 9.69882 15.8679C9.69882 15.8884 9.69882 15.8763 9.69882 15.8317C9.76959 15.8401 9.87221 15.816 9.94298 15.7919C9.94298 15.7798 9.94298 15.7677 9.94298 15.7557C9.94651 15.7557 10.0137 15.7557 10.0491 15.7557C10.0491 15.7436 10.0491 15.7315 10.0491 15.7195C10.0727 15.7195 10.0963 15.7195 10.1199 15.7195C10.1199 15.7074 10.1199 15.6953 10.1199 15.6507C10.1588 15.6592 10.2614 15.635 10.3004 15.5783C10.3004 15.5988 10.3004 15.5868 10.3004 15.5747C10.3357 15.5747 10.403 15.5747 10.4065 15.5747C10.4065 15.5627 10.4065 15.5506 10.4065 15.5385C10.462 15.5385 10.4855 15.5385 10.4773 15.5385C10.4773 15.5265 10.4773 15.5144 10.4773 15.5023C10.5681 15.4903 10.6271 15.4782 10.686 15.4661C10.686 15.4541 10.686 15.442 10.686 15.3973C10.6896 15.3973 10.7568 15.3973 10.7922 15.3973C10.7922 15.4179 10.7922 15.4058 10.7922 15.3611C10.8394 15.3817 10.8866 15.3696 10.9337 15.3249C10.9337 15.3455 10.9337 15.3334 10.9337 15.2888C10.9373 15.2888 11.0045 15.2888 11.008 15.2888C11.008 15.3093 11.008 15.2972 11.008 15.2851C11.0871 15.2731 11.1343 15.261 11.1496 15.2489C11.1496 15.2369 11.1496 15.2248 11.1496 15.2127C11.2286 15.2127 11.2758 15.2127 11.2911 15.2127C11.2911 15.2007 11.2911 15.1886 11.2911 15.144C11.3701 15.1645 11.4173 15.1524 11.4645 15.1078C11.4645 15.1283 11.4645 15.1162 11.4645 15.0716C11.468 15.0716 11.5353 15.0716 11.5707 15.0716C11.5707 15.0921 11.5707 15.08 11.5707 15.0354C11.5943 15.0354 11.6178 15.0354 11.6414 15.0354C11.6414 15.0559 11.6414 15.0438 11.6414 15.0318C11.645 15.0318 11.7122 15.0318 11.7157 15.0318C11.7157 15.0197 11.7157 15.0076 11.7157 14.9956C11.7511 14.9956 11.8183 14.9956 11.8219 14.9956C11.8219 14.9835 11.8219 14.9714 11.8219 14.9594C11.8573 14.9594 11.9245 14.9594 11.928 14.9594C11.928 14.9473 11.928 14.9352 11.928 14.9232C12.0188 14.9232 12.0778 14.9232 12.105 14.9232C12.105 14.9111 12.105 14.899 12.105 14.8544C12.1958 14.8544 12.2548 14.8544 12.3137 14.8544C12.3137 14.8749 12.3137 14.8628 12.3137 14.8182C12.3609 14.8182 12.4081 14.8182 12.4553 14.8182C12.4553 14.8387 12.4553 14.8266 12.4553 14.782C12.4588 14.782 12.526 14.782 12.5296 14.782C12.5296 14.8025 12.5296 14.7904 12.5296 14.7458C12.6204 14.7458 12.6793 14.7458 12.7065 14.7458C12.7065 14.7663 12.7065 14.7542 12.7065 14.7422C12.7855 14.7422 12.8327 14.7422 12.848 14.7422C12.848 14.7301 12.848 14.718 12.848 14.706C12.9978 14.6939 13.1158 14.6818 13.2019 14.6698C13.2019 14.6577 13.2019 14.6456 13.2019 14.601C13.2726 14.601 13.3752 14.601 13.4142 14.601C13.4142 14.6215 13.4142 14.6095 13.4142 14.5648C13.4849 14.5648 13.5876 14.5648 13.6583 14.5648C13.6583 14.5853 13.6583 14.5733 13.6583 14.5286C13.788 14.5286 13.9178 14.5286 14.0157 14.5286C14.0157 14.5491 14.0157 14.5371 14.0157 14.4924C14.1773 14.4924 14.3071 14.4924 14.4368 14.4924C14.7792 14.4281 15.7936 14.4693 16.0998 14.5286C16.1388 14.5286 16.2414 14.5286 16.2803 14.5286C16.2803 14.5733 16.2803 14.5853 16.2803 14.5648C16.3593 14.5648 16.4065 14.5648 16.4218 14.5648C16.4218 14.6095 16.4218 14.6215 16.4218 14.601C16.5008 14.601 16.548 14.601 16.5952 14.601C16.5952 14.6456 16.5952 14.6577 16.5952 14.6698C16.5988 14.6698 16.666 14.6698 16.7014 14.6698C16.7014 14.6818 16.7014 14.6939 16.7014 14.706C16.725 14.706 16.7485 14.706 16.7721 14.706C16.7721 14.718 16.7721 14.7301 16.7721 14.7422C16.8193 14.7422 16.8665 14.7422 16.9137 14.7422C16.9137 14.7542 16.9137 14.7663 16.9137 14.7458C16.9373 14.7458 16.9608 14.7458 16.9526 14.7458C16.9962 14.8025 17.008 14.8266 16.988 14.8182C17.1024 14.8749 17.185 14.899 17.2357 14.9232C17.2793 14.9473 17.2911 14.9714 17.2711 14.9956C17.3501 15.0076 17.3973 15.0197 17.4444 15.0318C17.468 15.0354 17.4916 15.1042 17.5152 15.1078C17.5388 15.1078 17.5624 15.1078 17.586 15.1078C17.6096 15.144 17.6331 15.2127 17.6567 15.2489C17.6803 15.2489 17.7039 15.2489 17.6957 15.2489C17.7511 15.2526 17.7747 15.3213 17.7664 15.3249C17.8219 15.3249 17.8454 15.3249 17.8372 15.3249C17.8726 15.4058 17.9398 15.4541 17.9434 15.5023C17.9988 15.5023 18.0224 15.5023 18.0141 15.5023C18.0578 15.5265 18.0696 15.5506 18.0814 15.5747C18.0849 15.5868 18.1521 15.5988 18.1875 15.5783C18.191 15.6592 18.2583 15.7074 18.2937 15.7557C18.3173 15.7557 18.3408 15.7557 18.3644 15.7557C18.388 15.7593 18.4116 15.8281 18.4033 15.8317C18.4588 15.8317 18.4824 15.8317 18.4741 15.8317C18.5095 15.9125 18.5767 15.9608 18.5803 16.0091C18.6357 16.0091 18.6593 16.0091 18.651 16.0091C18.7065 16.0127 18.7301 16.0815 18.7218 16.0851C18.7773 16.0851 18.8008 16.0851 18.8244 16.0851C18.848 16.1213 18.8716 16.19 18.8952 16.1937C18.9188 16.1937 18.9424 16.1937 18.966 16.1937C19.0249 16.2661 19.0839 16.371 19.1429 16.4108C19.1665 16.4108 19.19 16.4108 19.1818 16.4108C19.2172 16.4917 19.2844 16.54 19.288 16.5882C19.3434 16.5882 19.367 16.5882 19.3587 16.5882C19.4142 16.5918 19.4377 16.6606 19.4295 16.6642C19.4849 16.6642 19.5085 16.6642 19.5003 16.6642C19.5356 16.745 19.6029 16.7933 19.6383 16.8416C19.6418 16.8536 19.709 16.8657 19.7444 16.8778C19.7562 16.9019 19.768 16.926 19.7798 16.9176C19.8034 16.9176 19.827 16.9176 19.8506 16.9176C19.8977 17.0105 19.9449 17.0709 19.9603 17.1312C20.0157 17.1312 20.0393 17.1312 20.031 17.1312C20.0747 17.1553 20.0865 17.1794 20.0664 17.171C20.1219 17.171 20.1454 17.171 20.1372 17.171C20.1726 17.2518 20.2398 17.3001 20.2433 17.3483C20.2988 17.3483 20.3223 17.3483 20.3459 17.3483C20.3495 17.3966 20.4167 17.4449 20.4521 17.4605C20.4757 17.4605 20.4993 17.4605 20.5229 17.4605C20.57 17.5534 20.6172 17.6138 20.6326 17.6741C20.688 17.6741 20.7116 17.6741 20.7033 17.6741C20.7387 17.7224 20.8059 17.7706 20.8095 17.7863C20.8649 17.7863 20.8885 17.7863 20.8802 17.7863C20.9156 17.8671 20.9829 17.9154 20.9864 17.9637C21.0418 17.9637 21.0654 17.9637 21.089 17.9637C21.0926 18.0119 21.1598 18.0602 21.1952 18.0759C21.2188 18.0759 21.2423 18.0759 21.2659 18.0759C21.3131 18.1688 21.3603 18.2291 21.3756 18.2569C21.4311 18.2569 21.4546 18.2569 21.4464 18.2569C21.49 18.3136 21.5018 18.3377 21.4818 18.3293C21.5172 18.3739 21.5844 18.386 21.5879 18.3655C21.6669 18.4584 21.7141 18.5187 21.7295 18.5464C21.7849 18.5464 21.8085 18.5464 21.8321 18.5464C21.8793 18.6393 21.9265 18.6997 21.9736 18.76C21.9972 18.76 22.0208 18.76 22.0444 18.76C22.0562 18.7841 22.068 18.8083 22.0798 18.7998C22.0833 18.8444 22.1505 18.8565 22.1541 18.836C22.2331 18.9289 22.2803 18.9893 22.2956 19.0496C22.3511 19.0496 22.3746 19.0496 22.3664 19.0496C22.41 19.0737 22.4218 19.0978 22.4018 19.0894C22.4372 19.134 22.5044 19.1461 22.5398 19.1256C22.5869 19.2185 22.6341 19.2788 22.6813 19.3391C22.7049 19.3391 22.7285 19.3391 22.7521 19.3391C22.7556 19.3874 22.8228 19.4357 22.8582 19.4839C22.8818 19.4839 22.9054 19.4839 22.8971 19.4839C22.9325 19.5322 22.9998 19.5805 23.0033 19.5961C23.0587 19.5961 23.0823 19.5961 23.0741 19.5961C23.1295 19.6323 23.1531 19.7011 23.1448 19.7047C23.2003 19.7047 23.2239 19.7047 23.2156 19.7047C23.2946 19.7976 23.3418 19.858 23.389 19.8857C23.4126 19.8857 23.4362 19.8857 23.4598 19.8857C23.4715 19.9424 23.4834 19.9665 23.4951 19.9581C23.5069 19.9581 23.5187 19.9581 23.5305 19.9581C23.5423 20.0148 23.5541 20.0389 23.5659 20.0631C23.5895 20.0631 23.6131 20.0631 23.6048 20.0631C23.6485 20.0872 23.6603 20.1113 23.6402 20.1355C23.6838 20.1355 23.6957 20.1355 23.6756 20.1355C23.7192 20.1596 23.731 20.1837 23.711 20.1753C23.7664 20.1753 23.79 20.1753 23.7818 20.1753C23.8171 20.2561 23.8844 20.3044 23.8879 20.3526C23.9434 20.3526 23.9669 20.3526 23.9587 20.3526C23.9941 20.4009 24.0613 20.4492 24.0967 20.4649C24.1203 20.4649 24.1438 20.4649 24.1674 20.4649C24.171 20.5457 24.2382 20.594 24.2736 20.6422C24.2972 20.6422 24.3208 20.6422 24.3444 20.6422C24.3479 20.6905 24.4151 20.7388 24.4187 20.7544C24.4741 20.7544 24.4977 20.7544 24.4894 20.7544C24.5248 20.8353 24.5921 20.8835 24.5956 20.9318C24.651 20.9318 24.6746 20.9318 24.6664 20.9318C24.7017 20.98 24.769 21.0283 24.8044 21.044C24.828 21.044 24.8515 21.044 24.8751 21.044C24.8787 21.1248 24.9459 21.1731 24.9813 21.2214C25.0049 21.2214 25.0284 21.2214 25.052 21.2214C25.0556 21.2696 25.1228 21.3179 25.1264 21.3662C25.1818 21.3662 25.2054 21.3662 25.1971 21.3662C25.2408 21.3903 25.2526 21.4144 25.2325 21.4385C25.2679 21.4506 25.3351 21.4627 25.3387 21.4747C25.3387 21.4868 25.3387 21.4989 25.3387 21.4784C25.423 21.5534 25.4334 21.5614 25.512 21.5508Z" fill="#68BB30"/>
</svg>
